<svg height="34.7mm" viewBox="0 0 34.7 34.7" width="34.7mm" xmlns="http://www.w3.org/2000/svg"><path d="M0 .005h34.7v34.7H0z" fill="#0051cd"/><path d="m20.898.554 3.878 2.23-15.271 8.782-3.878-2.23zm4.034 2.698L9.757 11.975v4.413l15.175-8.723zm-6.102 8.613L9.789 17.06v4.414l9.04-5.197zm-3.466 6.977-5.596 3.216v4.414l5.596-3.217zM5.351 9.761l3.901 2.242-.002 4.414-3.9-2.242zm.037 5.056 3.854 2.215-.002 4.414-3.853-2.214zm-.001 5.026L9.24 22.06l-.001 4.705-3.855-2.215zm8.589 14.312-3.878-2.23 15.098-8.682 3.878 2.23zM9.79 31.544l15.153-8.71v-4.413l-15.152 8.71zm6.08-8.6 9.041-5.196v-4.414l-9.04 5.197zm3.466-6.977 5.596-3.217V8.337l-5.595 3.217zm10.014 9.11-3.901-2.242.001-4.414 3.9 2.242zm-.037-5.084-3.854-2.215.002-4.414 3.853 2.215zm.001-5.026L25.46 12.75l.001-4.62 3.855 2.215z" fill="#fff"/></svg>