<?xml version="1.0" encoding="iso-8859-1"?>
<!-- Generator: Adobe Illustrator 16.0.0, SVG Export Plug-In . SVG Version: 6.00 Build 0)  -->
<!DOCTYPE svg PUBLIC "-//W3C//DTD SVG 1.1//EN" "http://www.w3.org/Graphics/SVG/1.1/DTD/svg11.dtd">
<svg version="1.1" xmlns="http://www.w3.org/2000/svg" xmlns:xlink="http://www.w3.org/1999/xlink" x="0px" y="0px" width="520px"
	 height="520px" viewBox="0 0 520 520" style="enable-background:new 0 0 520 520;" xml:space="preserve">
<g id="_x35_07_x2C__Developer_x2C__Development_x2C__Startup">
	<g>
		<path d="M174.076,319.679c-1.953-1.953-5.119-1.953-7.071,0.002c-3.994,3.996-10.461,3.995-14.459-0.001
			c-1.953-1.953-5.118-1.953-7.071,0c-1.953,1.952-1.953,5.118,0,7.07c7.905,7.905,20.7,7.906,28.604-0.001
			C176.03,324.797,176.029,321.631,174.076,319.679z"/>
		<path d="M257.412,408.927l-37.455-16.053c-6.635-2.844-12.8-6.639-18.323-11.278c-4.404-3.7-7.479-6.653-11.111-11.646
			c-0.079-0.107-0.176-0.192-0.261-0.292c-0.085-0.1-0.153-0.209-0.248-0.303c-0.027-0.026-0.059-0.044-0.086-0.07
			c-0.133-0.128-0.278-0.235-0.422-0.346c-0.375-0.288-0.305-0.254-0.8-0.501c-0.497-0.248-0.404-0.205-0.872-0.338
			c-0.548-0.152-0.451-0.131-0.942-0.17c-0.571-0.05-0.496-0.038-0.966,0.013c-0.151,0.017-0.302,0.022-0.451,0.054v-7.682
			c19.377-9.489,32.756-29.409,32.756-52.4v-22.217c0.146,0.141,0.303,0.267,0.464,0.387c0.054,0.04,0.103,0.084,0.158,0.122
			c0.242,0.165,0.497,0.308,0.762,0.429c0.063,0.028,0.13,0.049,0.195,0.074c0.225,0.091,0.454,0.165,0.689,0.223
			c0.138,0.032-0.027,0.028,0.531,0.106c0.534,0.068,0.977,0.067,1.547-0.037c0.073-0.014,0.145-0.04,0.217-0.057
			c0.224-0.052,0.444-0.111,0.656-0.192c0.028-0.011,0.057-0.014,0.084-0.024c0.069-0.027,0.126-0.07,0.192-0.101
			c1.052-0.474,1.937-1.305,2.46-2.416c0.03-0.063,0.068-0.121,0.095-0.186c0.193-0.459,0.254-0.781,0.285-0.894
			c6.687-31.213,3.751-55.886-8.724-73.333c-9.632-13.47-21.54-17.239-22.042-17.393c-3.209-0.984-6.464,1.42-6.464,4.781v3.275
			c-8.164-2.485-22.731-5.947-39.248-5.405c-23.373,0.761-54.949,9.95-72.65,49.399c-0.025,0.057-0.035,0.116-0.058,0.173
			c-0.028,0.07-0.07,0.131-0.096,0.203c-0.038,0.107-0.049,0.217-0.08,0.325c-0.656,2.34,0.458,4.723,2.521,5.777
			c0.079,0.041,0.146,0.095,0.228,0.131c0.089,0.04,0.18,0.07,0.27,0.104c4.542,1.704,13.359,4.503,21.383,6.496v50.249
			c0,22.704,13.052,42.405,32.039,52.032v7.953c-0.134,0.006-0.079-0.015-0.613,0.037c-0.117,0.012-0.233,0.014-0.349,0.033
			c-0.219,0.038-0.829,0.215-0.926,0.252c-0.203,0.076-0.777,0.372-0.877,0.435c-0.194,0.121-0.813,0.618-0.894,0.698
			c-0.113,0.113-0.196,0.242-0.296,0.362c-0.067,0.082-0.147,0.148-0.21,0.235c-3.559,4.895-6.815,8.229-12.441,12.736
			c-5.182,4.148-10.899,7.576-16.994,10.187l-37.456,16.053c-22.582,9.679-35.07,45.835-35.07,67.128V490c0,2.762,2.239,5,5,5
			c7.264,0,247.141,0,254.965,0c2.762,0,5-2.238,5-5v-13.946C292.482,454.761,279.993,418.604,257.412,408.927z M133.967,380.406
			l19.4,19.399l-13.57,17.721l-13.213-29.765C129.184,385.519,131.574,383.201,133.967,380.406z M186.043,380.396
			c2.337,2.722,4.666,4.977,7.33,7.294l-13.867,29.796l-12.936-17.617L186.043,380.396z M150.11,205.062
			c22.199-0.789,41.194,6.578,42.278,7.008c0.209,0.083,0.221,0.065,0.358,0.111c0.606,0.204,0.65,0.209,1.26,0.249
			c0.211,0.014,0.281,0.087,1.108-0.045c0.079-0.012,0.161-0.01,0.238-0.026c0.095-0.02,0.184-0.061,0.277-0.086
			c0.422-0.114,0.819-0.28,1.189-0.494c0.099-0.058,0.207-0.1,0.302-0.164c0.125-0.084,0.233-0.191,0.35-0.286
			c0.134-0.108,0.276-0.207,0.399-0.33c0.227-0.227,0.432-0.476,0.612-0.743c0.034-0.05,0.056-0.11,0.088-0.162
			c0.143-0.229,0.277-0.465,0.382-0.718c0.003-0.007,0.008-0.013,0.011-0.02c0.041-0.1,0.056-0.203,0.09-0.303
			c0.192-0.569,0.214-0.649,0.252-1.292c0.006-0.1,0.03-0.195,0.03-0.297c0-0.227,0-2.205,0-2.074
			c8.888,6.082,23.425,21.725,20.195,57.874c-2.041-5.088-1.615-4.058-1.866-4.552c-0.065-0.128-0.127-0.258-0.203-0.379
			c-0.027-0.043-0.047-0.091-0.076-0.133c-0.067-0.102-0.153-0.188-0.228-0.283c-0.095-0.123-0.187-0.246-0.292-0.358
			c-0.034-0.036-0.063-0.079-0.098-0.114c-0.081-0.081-0.179-0.145-0.265-0.221c-0.119-0.103-0.234-0.208-0.362-0.3
			c-0.038-0.027-0.071-0.063-0.109-0.089c-0.099-0.067-0.211-0.113-0.315-0.172c-0.133-0.077-0.264-0.156-0.404-0.22
			c-0.042-0.02-0.08-0.047-0.122-0.065c-0.108-0.046-0.227-0.07-0.338-0.108c-0.147-0.051-0.293-0.104-0.445-0.142
			c-0.05-0.012-0.097-0.032-0.147-0.042c-0.099-0.021-0.204-0.021-0.305-0.036c-0.838-0.122-0.79-0.057-1.012-0.044
			c-0.703,0.04-0.702,0.078-1.044,0.173c-0.095,0.026-0.19,0.034-0.284,0.066l-5.908,2.015l1.49-6.691
			c0.869-3.898-2.978-7.202-6.703-5.743l-16.2,6.341l0.429-3.692c0.231-1.988-0.762-3.911-2.5-4.905
			c-1.737-0.994-3.916-0.844-5.513,0.363c-0.27,0.205-27.022,19.634-87.76-0.333C101.681,219.02,122.23,206.062,150.11,205.062z
			 M111.605,307.914v-48.048c31.243,5.993,51.449,1.214,62.093-3.134l-0.296,2.543c-0.433,3.732,3.266,6.607,6.789,5.233
			l15.206-5.951l-1.385,6.219c-0.844,3.79,2.791,7.08,6.494,5.819l7.724-2.634v39.952c0,26.639-21.672,48.312-48.312,48.312
			C133.279,356.226,111.605,334.553,111.605,307.914z M175.475,364.102v12.721L160,392.297l-16.355-16.355v-12.044
			C154.058,366.929,165.007,367.004,175.475,364.102z M37.518,476.056c0-21.042,12.672-50.935,29.01-57.937l37.455-16.053
			c5.077-2.175,9.92-4.853,14.467-7.983l15.625,35.2c1.534,3.458,6.23,4.027,8.54,1.012l6.932-9.052L134.073,485H82.482v-29.859
			c0-2.762-2.239-5-5-5s-5,2.238-5,5V485H37.518V476.056z M160,420.568L175.637,485h-31.273L160,420.568z M282.482,485h-35v-29.859
			c0-2.762-2.239-5-5-5s-5,2.238-5,5V485h-51.556l-15.179-62.545l5.696,7.759c2.241,3.055,6.958,2.601,8.563-0.85l16.454-35.354
			c4.567,3.155,9.435,5.86,14.556,8.056l37.456,16.053c16.337,7.001,29.009,36.893,29.009,57.936V485z"/>
		<path d="M481.995,179.894l-29.309-3.058c-1.645-5.483-3.854-10.81-6.596-15.907l18.604-22.85c1.619-1.99,1.471-4.883-0.346-6.696
			l-24.262-24.214c-1.812-1.808-4.696-1.956-6.685-0.342l-22.851,18.561c-5.115-2.755-10.443-4.966-15.911-6.602l-3.059-29.305
			C391.316,86.934,389.17,85,386.609,85h-34.26c-2.561,0-4.707,1.934-4.973,4.481l-3.059,29.309
			c-5.484,1.645-10.813,3.855-15.91,6.598l-22.852-18.561c-1.99-1.616-4.878-1.466-6.688,0.345l-24.214,24.214
			c-1.812,1.812-1.961,4.7-0.346,6.688l18.561,22.851c-2.743,5.097-4.953,10.426-6.598,15.911l-29.309,3.058
			c-2.546,0.266-4.481,2.413-4.481,4.973v34.26c0,2.561,1.935,4.708,4.481,4.973l29.304,3.058
			c1.637,5.468,3.848,10.796,6.603,15.912L274.31,265.92c-1.614,1.987-1.467,4.872,0.342,6.685l24.214,24.261
			c1.813,1.816,4.707,1.964,6.695,0.346l22.851-18.603c5.097,2.742,10.424,4.951,15.907,6.596l3.059,29.309
			c0.266,2.547,2.412,4.481,4.973,4.481h34.26c2.561,0,4.707-1.935,4.973-4.481l3.059-29.304c5.467-1.636,10.794-3.847,15.907-6.601
			l22.851,18.603c1.986,1.617,4.879,1.472,6.691-0.343l24.262-24.261c1.813-1.813,1.961-4.703,0.343-6.691l-18.603-22.851
			c2.754-5.114,4.964-10.442,6.599-15.908l29.305-3.058c2.547-0.266,4.481-2.413,4.481-4.973v-34.26
			C486.477,182.306,484.542,180.159,481.995,179.894z M476.477,214.622l-28.215,2.944c-2.086,0.218-3.813,1.713-4.328,3.746
			c-1.731,6.839-4.482,13.474-8.176,19.722c-1.065,1.802-0.896,4.078,0.426,5.701l17.905,21.994l-17.878,17.877L414.217,268.7
			c-1.624-1.321-3.9-1.493-5.701-0.426c-6.246,3.693-12.881,6.444-19.722,8.177c-2.032,0.515-3.527,2.242-3.745,4.328l-2.945,28.215
			h-25.248l-2.945-28.215c-0.217-2.083-1.709-3.81-3.738-4.326c-6.876-1.753-13.514-4.504-19.729-8.179
			c-1.802-1.066-4.076-0.896-5.701,0.426l-21.99,17.902l-17.841-17.874l17.868-21.998c1.319-1.624,1.487-3.897,0.423-5.697
			c-3.694-6.247-6.444-12.882-8.177-19.722c-0.515-2.033-2.242-3.528-4.328-3.746l-28.215-2.944v-25.25l28.215-2.944
			c2.083-0.217,3.81-1.709,4.326-3.739c1.753-6.877,4.504-13.515,8.179-19.729c1.064-1.801,0.896-4.074-0.423-5.697l-17.865-21.994
			l17.838-17.838l21.994,17.865c1.623,1.319,3.896,1.488,5.697,0.423c6.215-3.675,12.853-6.426,19.729-8.178
			c2.029-0.517,3.521-2.244,3.738-4.326L356.855,95h25.248l2.945,28.215c0.218,2.085,1.713,3.813,3.745,4.328
			c6.84,1.731,13.475,4.482,19.722,8.176c1.802,1.066,4.074,0.897,5.697-0.423l21.998-17.868l17.875,17.84l-17.902,21.99
			c-1.321,1.624-1.491,3.899-0.426,5.701c3.674,6.216,6.426,12.854,8.178,19.729c0.517,2.029,2.243,3.521,4.326,3.739l28.215,2.944
			V214.622z"/>
		<path d="M369.503,149.634c-28.886,0-52.386,23.5-52.386,52.386c0,28.86,23.5,52.339,52.386,52.339
			c28.859,0,52.339-23.479,52.339-52.339C421.842,173.135,398.362,149.634,369.503,149.634z M369.503,244.359
			c-23.371,0-42.386-18.993-42.386-42.339c0-23.372,19.015-42.386,42.386-42.386c23.346,0,42.339,19.014,42.339,42.386
			C411.842,225.366,392.849,244.359,369.503,244.359z"/>
		<path d="M117.482,145c24.813,0,45-20.187,45-45s-20.187-45-45-45s-45,20.187-45,45S92.669,145,117.482,145z M117.482,65
			c19.299,0,35,15.701,35,35s-15.701,35-35,35s-35-15.701-35-35S98.184,65,117.482,65z"/>
		<path d="M392.482,370c-16.542,0-30,13.458-30,30s13.458,30,30,30s30-13.458,30-30S409.024,370,392.482,370z M392.482,420
			c-11.028,0-20-8.972-20-20s8.972-20,20-20s20,8.972,20,20S403.511,420,392.482,420z"/>
		<circle cx="304.982" cy="37.5" r="7.5"/>
		<circle cx="479.982" cy="92.5" r="7.5"/>
		<circle cx="474.982" cy="337.5" r="7.5"/>
		<circle cx="204.983" cy="117.5" r="7.5"/>
		<circle cx="54.983" cy="177.5" r="7.5"/>
		<circle cx="74.983" cy="342.5" r="7.5"/>
		<circle cx="339.983" cy="442.5" r="7.5"/>
		<circle cx="259.982" cy="342.5" r="7.5"/>
	</g>
</g>
<g id="Layer_1">
</g>
</svg>
