<svg xmlns="http://www.w3.org/2000/svg"  viewBox="0 0 100 100" width="100px" height="100px"><path d="M 65.568359 10.353516 C 64.491903 10.370677 63.422969 10.405376 62.394531 10.447266 C 58.280779 10.614863 54.892578 10.949219 54.892578 10.949219 A 2.0002 2.0002 0 0 0 54.289062 11.107422 L 39.777344 17.457031 A 2.0002 2.0002 0 0 0 39.263672 17.785156 L 24.744141 30.484375 A 2.0002 2.0002 0 0 0 24.3125 31.017578 L 15.232422 47.359375 A 2.0002 2.0002 0 0 0 14.980469 48.330078 L 14.980469 68.287109 C 14.980444 68.290209 14.950179 72.043381 17.046875 75.775391 C 19.144438 79.508938 23.692208 83.216206 31.558594 82.988281 C 32.383132 82.964391 33.474264 82.915894 34.419922 82.880859 A 2.0002 2.0002 0 0 0 35.501953 82.955078 C 35.501953 82.955078 35.920876 82.8515 36.0625 82.820312 C 52.351915 82.160436 81.539062 80.263672 81.539062 80.263672 A 2.0002 2.0002 0 0 0 83.404297 78.408203 L 87.023438 26.716797 C 87.023438 26.716797 87.297539 23.536224 85.863281 20.011719 C 84.429023 16.487213 81.075286 12.484199 74.599609 10.990234 L 74.599609 10.992188 C 72.932481 10.607465 70.909596 10.428097 68.789062 10.367188 C 67.728797 10.336733 66.644816 10.336354 65.568359 10.353516 z M 65.644531 14.367188 C 66.689676 14.358252 67.733782 14.367017 68.728516 14.398438 C 69.682114 14.428558 70.580211 14.483719 71.398438 14.558594 L 64.214844 18.150391 L 58.417969 14.677734 C 59.571464 14.59531 60.950683 14.508788 62.556641 14.443359 C 63.553203 14.402759 64.599386 14.376123 65.644531 14.367188 z M 55.193359 15.076172 L 62.978516 19.742188 L 57.847656 35.970703 L 38.289062 53.757812 L 22.164062 57.150391 L 19.078125 48.671875 L 27.638672 33.265625 L 41.664062 20.998047 L 55.193359 15.076172 z M 74.693359 15.146484 C 75.6684 15.429399 76.517259 15.771724 77.265625 16.15625 L 74.603516 17.484375 A 1.0005541 1.0005541 0 1 0 75.496094 19.275391 L 79.193359 17.429688 C 79.728052 17.869527 80.189345 18.331969 80.578125 18.814453 L 79.273438 19.251953 A 1.0001 1.0001 0 1 0 79.908203 21.148438 L 81.710938 20.544922 C 81.878401 20.871009 82.026676 21.19632 82.158203 21.519531 C 83.216445 24.120026 83.037109 26.382813 83.037109 26.382812 A 2.0002 2.0002 0 0 0 83.035156 26.410156 L 82.623047 32.291016 L 68.677734 21.509766 A 1.0001 1.0001 0 0 0 68.056641 21.029297 L 66.041016 19.472656 L 74.693359 15.146484 z M 64.691406 20.957031 L 66.603516 22.435547 L 65.03125 27.142578 A 1.0001 1.0001 0 1 0 66.927734 27.777344 L 68.279297 23.730469 L 69.503906 24.679688 L 68.640625 28.115234 A 1.0001 1.0001 0 1 0 70.580078 28.603516 L 71.230469 26.013672 L 81.550781 33.990234 L 73.849609 34.814453 A 1.0001 1.0001 0 0 0 72.476562 34.962891 L 59.837891 36.314453 L 64.691406 20.957031 z M 47.056641 27.466797 C 46.940391 27.450391 46.819219 27.457734 46.699219 27.490234 C 46.209219 27.620234 45.920781 28.109609 46.050781 28.599609 C 46.180781 29.079609 46.670156 29.370234 47.160156 29.240234 C 47.640156 29.110234 47.930781 28.620859 47.800781 28.130859 C 47.710781 27.770859 47.405391 27.516016 47.056641 27.466797 z M 47.960938 34.728516 C 47.844062 34.712109 47.722109 34.7175 47.599609 34.75 C 47.119609 34.87 46.830937 35.369375 46.960938 35.859375 C 47.080938 36.339375 47.580312 36.63 48.070312 36.5 C 48.550312 36.37 48.840938 35.880625 48.710938 35.390625 C 48.613438 35.030625 48.311562 34.777734 47.960938 34.728516 z M 81.435547 36.015625 C 77.221448 46.192003 71.833731 54.031129 66.214844 60.029297 L 60.007812 38.306641 L 64.980469 37.775391 L 64.980469 39.25 A 1.0001 1.0001 0 1 0 66.980469 39.25 L 66.980469 37.560547 L 67.699219 37.484375 L 67.699219 40.160156 A 1.0001 1.0001 0 1 0 69.699219 40.160156 L 69.699219 37.269531 L 72.240234 36.998047 L 72.240234 41.070312 A 1.0001 1.0001 0 1 0 74.240234 41.070312 L 74.240234 36.785156 L 75.869141 36.609375 L 75.869141 38.349609 A 1.0001 1.0001 0 1 0 77.869141 38.349609 L 77.869141 36.396484 L 81.435547 36.015625 z M 57.994141 38.541016 L 64.515625 61.359375 L 48.277344 56.490234 A 1.0001 1.0001 0 0 0 47.964844 56.396484 L 45.798828 55.746094 A 1.0001 1.0001 0 0 0 44.951172 55.492188 L 40.742188 54.230469 L 57.994141 38.541016 z M 29.818359 41.078125 C 29.701953 41.061719 29.580938 41.067109 29.460938 41.099609 C 28.970937 41.229609 28.680547 41.720937 28.810547 42.210938 C 28.940547 42.690938 29.429922 42.979609 29.919922 42.849609 C 30.399922 42.719609 30.690313 42.230234 30.570312 41.740234 C 30.472812 41.380234 30.167578 41.127344 29.818359 41.078125 z M 81.748047 44.792969 L 79.638672 74.927734 L 68.59375 63.195312 C 73.293582 58.307155 77.84103 52.255152 81.748047 44.792969 z M 18.980469 54.25 L 20.433594 58.244141 L 18.980469 61.146484 L 18.980469 54.25 z M 39.453125 55.931641 L 43.478516 57.138672 L 42.466797 58.660156 A 1.0002487 1.0002487 0 1 0 44.132812 59.767578 L 45.480469 57.740234 L 46.404297 58.017578 L 45.125 60.582031 A 1.0001 1.0001 0 1 0 46.914062 61.474609 L 48.347656 58.599609 L 63.201172 63.052734 C 57.000613 68.922473 50.747306 72.72741 45.683594 75.136719 L 45.179688 72.626953 A 1.0001 1.0001 0 0 0 44.183594 71.810547 A 1.0001 1.0001 0 0 0 43.21875 73.021484 L 43.810547 75.972656 C 42.801178 76.412349 41.861559 76.796656 40.988281 77.125 L 41.550781 74.882812 A 1.0001 1.0001 0 0 0 40.613281 73.625 A 1.0001 1.0001 0 0 0 39.609375 74.396484 L 38.724609 77.927734 C 38.249212 78.082592 37.805661 78.226914 37.408203 78.34375 L 37.929688 75.742188 A 1.0001 1.0001 0 0 0 36.935547 74.53125 A 1.0001 1.0001 0 0 0 35.96875 75.349609 L 35.267578 78.849609 C 34.520451 78.878882 33.791902 78.904425 33.107422 78.927734 L 39.453125 55.931641 z M 37.359375 55.996094 L 31.283203 78.013672 L 29.691406 74.392578 L 31.037109 73.71875 A 1.0001161 1.0001161 0 1 0 30.142578 71.929688 L 28.884766 72.560547 L 27.728516 69.933594 L 31.039062 68.273438 A 1.0001 1.0001 0 1 0 30.142578 66.486328 L 26.921875 68.099609 L 26.126953 66.292969 L 28.185547 65.607422 A 1.0005647 1.0005647 0 1 0 27.552734 63.708984 L 25.318359 64.455078 L 22.931641 59.03125 L 37.359375 55.996094 z M 21.462891 60.65625 L 29.511719 78.955078 C 27.53086 78.832679 25.957324 78.426707 24.703125 77.830078 L 25.210938 75.787109 A 1.0001 1.0001 0 0 0 24.271484 74.533203 A 1.0001 1.0001 0 0 0 23.269531 75.304688 L 22.919922 76.714844 C 22.25231 76.176409 21.717834 75.57285 21.263672 74.945312 L 22.46875 71.324219 A 1.0001 1.0001 0 0 0 21.53125 69.996094 A 1.0001 1.0001 0 0 0 20.570312 70.693359 L 19.945312 72.576172 C 19.009421 70.305041 18.980469 68.289063 18.980469 68.289062 A 2.0002 2.0002 0 0 0 18.980469 68.287109 L 18.980469 65.619141 L 21.462891 60.65625 z M 67.195312 64.626953 L 78.328125 76.453125 C 77.449081 76.509776 73.226177 76.762813 70.6875 76.921875 L 71.748047 75.152344 A 1.0001 1.0001 0 0 0 70.921875 73.626953 A 1.0001 1.0001 0 0 0 70.033203 74.125 L 68.265625 77.070312 C 67.538342 77.115344 67.161254 77.138966 66.369141 77.1875 L 67.150391 76.146484 A 1.0001 1.0001 0 0 0 66.386719 74.535156 A 1.0001 1.0001 0 0 0 65.550781 74.945312 L 63.75 77.347656 C 63.177791 77.38214 63.087102 77.390482 62.496094 77.425781 L 63.5 76.169922 A 1.0001 1.0001 0 0 0 62.689453 74.535156 A 1.0001 1.0001 0 0 0 61.939453 74.921875 L 59.804688 77.589844 C 59.301312 77.619256 58.896711 77.640403 58.386719 77.669922 L 58.896484 77.160156 A 1.0001 1.0001 0 0 0 58.169922 75.443359 A 1.0001 1.0001 0 0 0 57.482422 75.746094 L 55.394531 77.833984 C 52.98457 77.970645 50.608133 78.101233 48.210938 78.228516 C 53.80419 75.44297 60.586533 71.148661 67.195312 64.626953 z"/></svg>