<svg width="2500" height="2374" fill="none" xmlns="http://www.w3.org/2000/svg"><path d="M1732.24 1657.64c92.25-9.55 162.24-89.08 159.06-184.53-3.18-95.44-82.72-171.8-178.16-171.8h-6.35c-98.64 3.19-174.98 85.9-171.8 184.53 3.18 47.72 22.27 89.08 50.9 117.71-108.17 213.16-273.6 369.05-521.74 499.49-168.613 89.08-343.584 120.9-518.554 98.64-143.164-19.1-254.512-82.72-324.512-187.72-101.797-155.89-111.338-324.51-25.44-493.12 60.45-120.9 155.879-209.98 216.329-254.53-12.725-41.35-31.817-111.34-41.358-162.24-461.299 334.05-413.574 785.82-273.594 998.97 104.981 159.08 318.135 257.71 553.555 257.71 63.623 0 127.246-6.37 190.879-22.27 407.215-79.54 715.815-321.34 890.785-680.84Zm559.92-394.5c-241.79-283.154-598.1-439.042-1005.31-439.042h-50.9c-28.64-57.266-89.08-95.45-155.89-95.45h-6.37c-98.612 3.184-174.96 85.899-171.786 184.532 3.184 95.44 82.715 171.8 178.156 171.8h6.36c69.99-3.19 130.44-47.73 155.88-108.177h57.27c241.79 0 470.84 69.987 677.64 206.797 159.06 104.99 273.59 241.8 337.21 407.23 54.09 133.62 50.9 264.06-6.36 375.42-89.08 168.61-238.6 260.88-435.84 260.88-127.26 0-248.15-38.19-311.78-66.82-34.99 31.81-98.62 82.71-143.16 114.54 136.8 63.62 276.78 98.62 410.4 98.62 305.41 0 531.28-168.62 617.18-337.23 92.26-184.53 85.89-502.68-152.7-773.1ZM676.025 1711.71c3.184 95.45 82.715 171.8 178.155 171.8h6.367c98.623-3.17 174.973-85.9 171.783-184.52-3.17-95.45-82.711-171.8-178.15-171.8h-6.358c-6.367 0-15.918 0-22.265 3.18-130.44-216.34-184.522-451.76-165.43-706.282 12.715-190.889 76.347-356.328 187.695-493.135 92.256-117.715 270.408-174.98 391.308-178.154 337.22-6.367 480.37 413.584 489.92 582.207 41.36 9.541 111.35 31.816 159.07 47.724C1849.94 267.34 1531.81.094 1226.41.094 940.078.094 676.025 206.89 571.035 512.31c-146.338 407.227-50.898 798.55 127.256 1107.15-15.899 22.26-25.449 57.26-22.266 92.26v-.01Z" fill="#764ABC"/></svg>