<svg width="54" height="32" fill="none" xmlns="http://www.w3.org/2000/svg"><g clip-path="url(#a)"><path d="M3.88 12a.39.39 0 0 1-.287-.112.39.39 0 0 1-.112-.288V1.2a.39.39 0 0 1 .112-.288A.39.39 0 0 1 3.88.8h4.24c1.333 0 2.384.31 3.152.928.768.608 1.152 1.488 1.152 2.64 0 .779-.187 1.43-.56 1.952a3.357 3.357 0 0 1-1.504 1.168l2.256 4a.398.398 0 0 1 .048.176.363.363 0 0 1-.096.24.326.326 0 0 1-.24.096h-1.776c-.192 0-.336-.048-.432-.144a1.362 1.362 0 0 1-.208-.288L7.96 7.904H6.025V11.6a.39.39 0 0 1-.112.288.39.39 0 0 1-.288.112H3.88Zm2.145-6.128h2.048c.587 0 1.019-.133 1.296-.4.288-.267.432-.64.432-1.12 0-.48-.139-.859-.416-1.136-.277-.277-.715-.416-1.312-.416H6.025v3.072Zm11.789 6.288c-1.227 0-2.203-.341-2.928-1.024-.715-.683-1.093-1.675-1.136-2.976v-.688c.043-.821.23-1.525.56-2.112A3.29 3.29 0 0 1 15.702 4c.597-.32 1.296-.48 2.096-.48.896 0 1.642.187 2.24.56a3.377 3.377 0 0 1 1.36 1.504c.31.63.464 1.355.464 2.176v.368a.349.349 0 0 1-.128.272.37.37 0 0 1-.272.112H16.23v.128a2.7 2.7 0 0 0 .192.944c.128.277.304.501.528.672.235.17.512.256.832.256.266 0 .485-.037.656-.112.17-.075.31-.165.416-.272.117-.107.202-.197.256-.272.096-.107.17-.17.224-.192a.669.669 0 0 1 .288-.048h1.664c.106 0 .192.032.256.096.074.053.106.133.096.24-.01.17-.102.384-.272.64-.16.245-.4.49-.72.736a4.34 4.34 0 0 1-1.2.592c-.47.16-1.014.24-1.632.24ZM16.23 7.056h3.136v-.032c0-.384-.064-.715-.192-.992a1.453 1.453 0 0 0-.528-.672 1.469 1.469 0 0 0-.848-.24c-.33 0-.613.08-.848.24-.235.16-.416.384-.544.672-.118.277-.176.608-.176.992v.032Zm10.32 5.104a3.725 3.725 0 0 1-1.425-.256 2.934 2.934 0 0 1-1.056-.768 3.536 3.536 0 0 1-.656-1.2c-.15-.47-.24-.987-.272-1.552a9.897 9.897 0 0 1 0-1.088 5.594 5.594 0 0 1 .256-1.52c.16-.459.379-.853.656-1.184.288-.341.64-.603 1.056-.784a3.472 3.472 0 0 1 1.44-.288c.555 0 1.03.096 1.424.288.395.181.72.421.976.72V1.04a.39.39 0 0 1 .112-.288.39.39 0 0 1 .288-.112h1.648a.37.37 0 0 1 .272.112.39.39 0 0 1 .112.288V11.6a.39.39 0 0 1-.112.288.37.37 0 0 1-.272.112h-1.536a.37.37 0 0 1-.272-.112.39.39 0 0 1-.112-.288v-.544a3.28 3.28 0 0 1-1.008.8c-.405.203-.912.304-1.52.304Zm.735-1.92c.395 0 .71-.09.944-.272.245-.181.422-.41.528-.688a2.49 2.49 0 0 0 .192-.896 5.786 5.786 0 0 0 0-1.2 2.16 2.16 0 0 0-.192-.832 1.544 1.544 0 0 0-.544-.656c-.234-.17-.544-.256-.928-.256-.405 0-.725.09-.96.272-.235.17-.405.4-.512.688a3.71 3.71 0 0 0-.176.944c-.032.33-.032.661 0 .992.021.341.08.656.176.944.107.288.277.523.512.704.235.17.555.256.96.256Zm9.185 1.92c-.618 0-1.168-.139-1.648-.416a2.956 2.956 0 0 1-1.104-1.232c-.256-.544-.384-1.2-.384-1.968V4.08a.39.39 0 0 1 .112-.288.37.37 0 0 1 .272-.112h1.696a.39.39 0 0 1 .288.112.39.39 0 0 1 .112.288v4.368c0 1.195.523 1.792 1.568 1.792.502 0 .896-.155 1.184-.464.299-.32.448-.763.448-1.328V4.08a.39.39 0 0 1 .112-.288.39.39 0 0 1 .288-.112h1.696a.37.37 0 0 1 .272.112.39.39 0 0 1 .112.288v7.52a.39.39 0 0 1-.112.288.37.37 0 0 1-.272.112h-1.568a.39.39 0 0 1-.288-.112.39.39 0 0 1-.112-.288v-.624a2.699 2.699 0 0 1-1.072.88c-.437.203-.97.304-1.6.304Zm6.686-.16a.382.382 0 0 1-.256-.096.382.382 0 0 1-.08-.368.627.627 0 0 1 .08-.144l2.704-3.664-2.48-3.44a.839.839 0 0 1-.08-.128.524.524 0 0 1-.016-.128c0-.096.032-.176.096-.24a.352.352 0 0 1 .256-.112h1.664c.128 0 .224.032.288.096a.767.767 0 0 1 .16.176l1.648 2.24 1.648-2.224c.043-.053.096-.112.16-.176.064-.075.165-.112.304-.112h1.584c.096 0 .176.037.24.112a.303.303 0 0 1 .112.24.524.524 0 0 1-.016.128.283.283 0 0 1-.08.128l-2.528 3.456 2.736 3.648a.361.361 0 0 1 .064.128.284.284 0 0 1 .032.128.352.352 0 0 1-.112.256.326.326 0 0 1-.24.096H49.3a.414.414 0 0 1-.272-.08 2.193 2.193 0 0 1-.16-.176l-1.776-2.368-1.808 2.368c-.032.043-.08.096-.144.16-.064.064-.16.096-.288.096h-1.696Zm-39.1 19a.39.39 0 0 1-.288-.112.39.39 0 0 1-.112-.288v-8.576H.744a.37.37 0 0 1-.272-.112.37.37 0 0 1-.112-.272V20.2a.39.39 0 0 1 .112-.288.37.37 0 0 1 .272-.112h8.384a.39.39 0 0 1 .288.112.39.39 0 0 1 .112.288v1.44a.37.37 0 0 1-.112.272.39.39 0 0 1-.288.112H6.232V30.6a.39.39 0 0 1-.112.288.39.39 0 0 1-.288.112H4.056Zm9.205.16c-.885 0-1.626-.144-2.224-.432a3.229 3.229 0 0 1-1.376-1.264c-.309-.544-.48-1.179-.512-1.904a15.394 15.394 0 0 1 0-1.44c.032-.736.214-1.37.544-1.904a3.23 3.23 0 0 1 1.392-1.248c.598-.299 1.323-.448 2.176-.448.843 0 1.563.15 2.16.448a3.23 3.23 0 0 1 1.392 1.248c.331.533.512 1.168.544 1.904.022.203.032.443.032.72 0 .267-.01.507-.032.72-.032.725-.208 1.36-.528 1.904a3.124 3.124 0 0 1-1.36 1.264c-.597.288-1.333.432-2.208.432Zm0-1.76c.523 0 .918-.16 1.184-.48.267-.33.411-.81.432-1.44.011-.16.016-.373.016-.64s-.005-.48-.016-.64c-.02-.619-.165-1.093-.432-1.424-.266-.33-.66-.496-1.184-.496-.522 0-.922.165-1.2.496-.266.33-.41.805-.432 1.424-.01.16-.016.373-.016.64s.006.48.016.64c.022.63.166 1.11.432 1.44.278.32.678.48 1.2.48Zm9.61 1.76c-.886 0-1.627-.144-2.224-.432a3.228 3.228 0 0 1-1.376-1.264c-.31-.544-.48-1.179-.512-1.904a14.132 14.132 0 0 1-.016-.72c0-.277.005-.517.016-.72.032-.736.213-1.37.544-1.904a3.23 3.23 0 0 1 1.392-1.248c.597-.299 1.322-.448 2.176-.448.843 0 1.563.15 2.16.448a3.23 3.23 0 0 1 1.392 1.248c.33.533.512 1.168.544 1.904.021.203.032.443.032.72 0 .267-.011.507-.032.72-.032.725-.208 1.36-.528 1.904-.31.544-.763.965-1.36 1.264-.598.288-1.334.432-2.208.432Zm0-1.76c.523 0 .917-.16 1.184-.48.267-.33.41-.81.432-1.44.01-.16.016-.373.016-.64s-.006-.48-.016-.64c-.022-.619-.165-1.093-.432-1.424-.267-.33-.662-.496-1.184-.496-.523 0-.923.165-1.2.496-.267.33-.41.805-.432 1.424-.01.16-.016.373-.016.64s.005.48.016.64c.021.63.165 1.11.432 1.44.277.32.677.48 1.2.48Zm6.201 1.6a.39.39 0 0 1-.288-.112.39.39 0 0 1-.112-.288V20.04a.39.39 0 0 1 .112-.288.39.39 0 0 1 .288-.112h1.6a.37.37 0 0 1 .272.112.39.39 0 0 1 .112.288V30.6a.39.39 0 0 1-.112.288.37.37 0 0 1-.272.112h-1.6Zm4.582 0a.39.39 0 0 1-.288-.112.39.39 0 0 1-.112-.288V20.2a.39.39 0 0 1 .112-.288.39.39 0 0 1 .288-.112h1.696a.39.39 0 0 1 .288.112.39.39 0 0 1 .112.288v3.648l3.296-3.744a.738.738 0 0 1 .208-.192.71.71 0 0 1 .416-.112h1.936c.096 0 .176.037.24.112a.307.307 0 0 1 .096.224.297.297 0 0 1-.064.192l-4.112 4.832 4.416 5.312c.043.043.064.107.064.192a.363.363 0 0 1-.096.24.325.325 0 0 1-.24.096h-2c-.192 0-.336-.043-.432-.128a5.356 5.356 0 0 1-.192-.176L35.75 26.6v4a.39.39 0 0 1-.112.288.39.39 0 0 1-.288.112h-1.696Zm10.168 0a.37.37 0 0 1-.272-.112.39.39 0 0 1-.112-.288v-7.52a.39.39 0 0 1 .112-.288.37.37 0 0 1 .272-.112h1.6a.39.39 0 0 1 .288.112.39.39 0 0 1 .112.288v7.52a.39.39 0 0 1-.112.288.39.39 0 0 1-.288.112h-1.6Zm-.048-9.6a.37.37 0 0 1-.272-.112.39.39 0 0 1-.112-.288v-1.28a.39.39 0 0 1 .112-.288.349.349 0 0 1 .272-.128h1.68c.117 0 .213.043.288.128.085.075.128.17.128.288V21a.366.366 0 0 1-.128.288.39.39 0 0 1-.288.112h-1.68Zm8.054 9.6c-.66 0-1.226-.107-1.696-.32a2.32 2.32 0 0 1-1.072-1.024c-.234-.459-.352-1.035-.352-1.728v-3.36H47.46a.39.39 0 0 1-.288-.112.39.39 0 0 1-.112-.288V23.08a.39.39 0 0 1 .112-.288.39.39 0 0 1 .288-.112h1.248v-2.64a.39.39 0 0 1 .112-.288.426.426 0 0 1 .288-.112h1.568a.39.39 0 0 1 .288.112.39.39 0 0 1 .112.288v2.64h2a.37.37 0 0 1 .272.112.39.39 0 0 1 .112.288v1.088a.39.39 0 0 1-.112.288.37.37 0 0 1-.272.112h-2v3.168c0 .405.07.725.208.96.15.224.406.336.768.336h1.168a.37.37 0 0 1 .272.112.37.37 0 0 1 .112.272V30.6a.39.39 0 0 1-.112.288.37.37 0 0 1-.272.112h-1.392Z" fill="#AE8BF8"/></g><defs><clipPath id="a"><path fill="#fff" d="M0 0h54v32H0z"/></clipPath></defs></svg>