<svg style="display:none" aria-hidden="true" xmlns="http://www.w3.org/2000/svg"><symbol id="icon-django" viewBox="0 0 256 256"><g>
        <rect fill="#092E20" x="0" y="0" width="256" height="256" rx="28">

</rect>
        <path d="M186.377012,94.197636 L186.377012,160.424478 C186.377012,183.243286 184.707519,194.187745 179.699037,203.649406 C175.060358,212.741266 168.937684,218.490548 156.323731,224.798721 L129.794937,212.183571 C142.410087,206.247593 148.531564,201.05481 152.427049,193.074749 C156.509231,184.91278 157.808923,175.451119 157.808923,150.593015 L157.808923,94.197636 L186.377012,94.197636 Z M140.928486,50.0787207 L140.928486,182.316986 C126.272844,185.099476 115.512688,186.212472 103.826231,186.212472 C68.9487718,186.212472 50.7686431,170.445031 50.7686431,140.205054 C50.7686431,111.079269 70.0629644,92.1583404 99.9295492,92.1583404 C104.567032,92.1583404 108.091519,92.5281423 112.359199,93.6411381 L112.359199,50.0787207 L140.928486,50.0787207 Z M102.713236,115.160254 C88.243093,115.160254 79.8944275,124.065418 79.8944275,139.647359 C79.8944275,154.860696 87.8720944,163.208164 102.527736,163.208164 C105.680028,163.208164 108.278215,163.022665 112.359199,162.467364 L112.359199,116.643052 C109.020212,115.531253 106.237722,115.160254 102.713236,115.160254 Z M186.377012,50.2307105 L186.377012,79.5419941 L157.808923,79.5419941 L157.808923,50.2307105 L186.377012,50.2307105 Z" fill="#FFFFFD">

</path>
    </g>
</symbol><symbol id="icon-react" viewBox="-11.5 -10.232 23 20.463"><circle r="2.05" fill="#61dafb" /><g stroke="#61dafb" fill="none"><ellipse rx="11" ry="4.2" /><ellipse rx="11" ry="4.2" transform="rotate(60)" /><ellipse rx="11" ry="4.2" transform="rotate(120)" /></g></symbol><symbol id="icon-typescript" viewBox="0 0 2500 2500"><path d="M0 0h2500v2500H0V0Z" fill="#017ACB" /><path d="M1200.39 925.781h119.92v207.029H996.094v921.1l-8.594 2.34c-11.719 3.13-166.016 3.12-199.219-.39l-26.562-2.34v-920.71H437.5V925.781l102.734-1.172c56.25-.781 200.782-.781 321.094 0 120.313.782 272.652 1.172 339.062 1.172Zm915.23 1030.469c-47.65 50.39-98.82 78.52-183.98 101.56-37.11 10.16-43.36 10.55-126.95 10.16-83.6-.39-90.24-.39-130.86-10.94-105.08-26.95-189.85-79.69-247.66-154.3-16.4-21.09-43.36-64.84-43.36-70.31 0-1.56 3.91-5.08 8.99-7.42 5.07-2.34 15.62-8.98 24.22-14.06 8.59-5.08 24.21-14.46 34.76-19.92 10.55-5.47 41.02-23.44 67.58-39.46 26.56-16.01 50.78-28.9 53.51-28.9 2.74 0 7.82 5.46 11.72 12.11 23.44 39.45 78.13 89.84 116.8 107.03 23.83 10.15 76.56 21.48 101.95 21.48 23.44 0 66.41-10.15 89.46-20.7 24.61-11.33 37.11-22.66 51.95-45.31 10.16-16.02 11.33-20.32 10.94-50.79 0-28.12-1.57-35.93-9.38-48.82-21.87-35.94-51.56-54.69-171.87-107.82-124.22-55.07-180.08-87.89-225.39-132.03-33.6-32.81-40.24-41.79-61.33-82.81-27.35-52.73-30.86-69.92-31.25-148.44-.39-55.08.78-73.04 6.64-91.79 8.2-28.13 34.76-82.43 46.87-96.1 25-29.3 33.99-38.28 51.57-52.733 53.12-43.75 135.93-72.656 215.23-75.39 8.99 0 38.67 1.562 66.41 3.515 79.68 6.641 133.98 26.172 186.33 67.969 39.45 31.249 99.21 104.689 93.35 114.449-3.9 5.86-159.76 109.77-169.92 112.9-6.25 1.95-10.54-.4-19.14-10.55-53.12-63.67-74.61-77.35-126.17-80.47-36.72-2.34-56.25 1.95-80.86 18.36-25.78 17.19-38.28 43.36-38.28 79.69.39 53.12 20.7 78.12 95.7 115.23 48.44 23.83 89.85 43.36 92.97 43.36 4.69 0 105.08 50 131.25 65.62 121.88 71.49 171.49 144.93 184.38 271.49 9.37 95.31-17.58 182.42-76.18 244.14Z" fill="#fff" /></symbol><symbol id="icon-docker" viewBox="0 0 32 32"><circle cx="16" cy="16" r="14" fill="#1794D4" />
<path d="M18 7H16V9H18V7Z" fill="white" />
<path d="M10 10H12V12H10V10Z" fill="white" />
<path d="M6.00155 16.9414C6.17244 19.8427 7.90027 24 14 24C20.8 24 23.8333 19 24.5 16.5C25.3333 16.5 27.2 16 28 14C27.5 13.5 25.5 13.5 24.5 14C24.5 13.2 24 11.5 23 11C22.3333 11.6667 21.3 13.4 22.5 15C22 16 20.6667 16 20 16H6.9429C6.41342 16 5.97041 16.4128 6.00155 16.9414Z" fill="white" />
<path d="M9 13H7V15H9V13Z" fill="white" />
<path d="M10 13H12V15H10V13Z" fill="white" />
<path d="M15 13H13V15H15V13Z" fill="white" />
<path d="M16 13H18V15H16V13Z" fill="white" />
<path d="M21 13H19V15H21V13Z" fill="white" />
<path d="M15 10H13V12H15V10Z" fill="white" />
<path d="M16 10H18V12H16V10Z" fill="white" />
</symbol><symbol id="icon-redux" viewBox="0 0 2500 2374"><path d="M1732.24 1657.64c92.25-9.55 162.24-89.08 159.06-184.53-3.18-95.44-82.72-171.8-178.16-171.8h-6.35c-98.64 3.19-174.98 85.9-171.8 184.53 3.18 47.72 22.27 89.08 50.9 117.71-108.17 213.16-273.6 369.05-521.74 499.49-168.613 89.08-343.584 120.9-518.554 98.64-143.164-19.1-254.512-82.72-324.512-187.72-101.797-155.89-111.338-324.51-25.44-493.12 60.45-120.9 155.879-209.98 216.329-254.53-12.725-41.35-31.817-111.34-41.358-162.24-461.299 334.05-413.574 785.82-273.594 998.97 104.981 159.08 318.135 257.71 553.555 257.71 63.623 0 127.246-6.37 190.879-22.27 407.215-79.54 715.815-321.34 890.785-680.84Zm559.92-394.5c-241.79-283.154-598.1-439.042-1005.31-439.042h-50.9c-28.64-57.266-89.08-95.45-155.89-95.45h-6.37c-98.612 3.184-174.96 85.899-171.786 184.532 3.184 95.44 82.715 171.8 178.156 171.8h6.36c69.99-3.19 130.44-47.73 155.88-108.177h57.27c241.79 0 470.84 69.987 677.64 206.797 159.06 104.99 273.59 241.8 337.21 407.23 54.09 133.62 50.9 264.06-6.36 375.42-89.08 168.61-238.6 260.88-435.84 260.88-127.26 0-248.15-38.19-311.78-66.82-34.99 31.81-98.62 82.71-143.16 114.54 136.8 63.62 276.78 98.62 410.4 98.62 305.41 0 531.28-168.62 617.18-337.23 92.26-184.53 85.89-502.68-152.7-773.1ZM676.025 1711.71c3.184 95.45 82.715 171.8 178.155 171.8h6.367c98.623-3.17 174.973-85.9 171.783-184.52-3.17-95.45-82.711-171.8-178.15-171.8h-6.358c-6.367 0-15.918 0-22.265 3.18-130.44-216.34-184.522-451.76-165.43-706.282 12.715-190.889 76.347-356.328 187.695-493.135 92.256-117.715 270.408-174.98 391.308-178.154 337.22-6.367 480.37 413.584 489.92 582.207 41.36 9.541 111.35 31.816 159.07 47.724C1849.94 267.34 1531.81.094 1226.41.094 940.078.094 676.025 206.89 571.035 512.31c-146.338 407.227-50.898 798.55 127.256 1107.15-15.899 22.26-25.449 57.26-22.266 92.26v-.01Z" fill="#764ABC" /></symbol><symbol id="icon-html" viewBox="0 0 32 32"><path style="fill:#e44f26" d="M5.902 27.201 3.655 2h24.69l-2.25 25.197L15.985 30 5.902 27.201z" /><path style="fill:#f1662a" d="m16 27.858 8.17-2.265 1.922-21.532H16v23.797z" /><path style="fill:#ebebeb" d="M16 13.407h-4.09l-.282-3.165H16V7.151H8.25l.074.83.759 8.517H16v-3.091zm0 8.027-.014.004-3.442-.929-.22-2.465H9.221l.433 4.852 6.332 1.758.014-.004v-3.216z" /><path style="fill:#fff" d="M15.989 13.407v3.091h3.806l-.358 4.009-3.448.93v3.216l6.337-1.757.046-.522.726-8.137.076-.83h-7.185zm0-6.256v3.091h7.466l.062-.694.141-1.567.074-.83h-7.743z" /></symbol><symbol id="icon-css" viewBox="0 0 32 32"><path style="fill:#1572b6" d="M5.902 27.201 3.656 2h24.688l-2.249 25.197L15.985 30 5.902 27.201z" /><path style="fill:#33a9dc" d="m16 27.858 8.17-2.265 1.922-21.532H16v23.797z" /><path style="fill:#fff" d="M16 13.191h4.09l.282-3.165H16V6.935h7.75l-.074.829-.759 8.518H16v-3.091z" /><path style="fill:#ebebeb" d="m16.019 21.218-.014.004-3.442-.93-.22-2.465H9.24l.433 4.853 6.331 1.758.015-.004v-3.216z" /><path style="fill:#fff" d="m19.827 16.151-.372 4.139-3.447.93v3.216l6.336-1.756.047-.522.537-6.007h-3.101z" /><path style="fill:#ebebeb" d="M16.011 6.935v3.091H8.545l-.062-.695-.141-1.567-.074-.829h7.743zM16 13.191v3.091h-3.399l-.062-.695-.14-1.567-.074-.829H16z" /></symbol><symbol id="icon-kubernetes" viewBox="0 -10.44 722.846 722.846"><path d="M358.986 10.06a46.725 46.342 0 00-17.906 4.531L96.736 131.341a46.725 46.342 0 00-25.28 31.438l-60.282 262.25a46.725 46.342 0 006.344 35.531 46.725 46.342 0 002.656 3.688l169.125 210.28a46.725 46.342 0 0036.531 17.438l271.219-.062a46.725 46.342 0 0036.531-17.406l169.063-210.313a46.725 46.342 0 009.03-39.219L651.3 162.716a46.725 46.342 0 00-25.281-31.437L381.643 14.59a46.725 46.342 0 00-22.657-4.53z" fill="#326ce5" /><path d="M361.408 99.307c-8.077.001-14.626 7.276-14.625 16.25 0 .138.028.27.03.406-.011 1.22-.07 2.689-.03 3.75.192 5.176 1.32 9.138 2 13.907 1.23 10.206 2.26 18.667 1.625 26.531-.62 2.965-2.803 5.677-4.75 7.562l-.344 6.188a190.337 190.337 0 00-26.438 4.062c-37.974 8.623-70.67 28.184-95.562 54.594a245.167 245.167 0 01-5.281-3.75c-2.612.353-5.25 1.159-8.688-.844-6.545-4.405-12.506-10.486-19.719-17.812-3.305-3.504-5.698-6.841-9.625-10.219-.891-.767-2.252-1.804-3.25-2.594-3.07-2.447-6.69-3.724-10.187-3.843-4.496-.154-8.824 1.604-11.656 5.156-5.036 6.315-3.424 15.968 3.593 21.562.071.057.147.101.219.157.964.781 2.145 1.783 3.031 2.437 4.167 3.077 7.973 4.652 12.125 7.094 8.747 5.402 15.999 9.88 21.75 15.281 2.246 2.394 2.639 6.613 2.938 8.438l4.687 4.187c-25.093 37.764-36.707 84.41-29.843 131.938l-6.125 1.781c-1.615 2.085-3.896 5.365-6.282 6.344-7.525 2.37-15.994 3.24-26.218 4.312-4.8.4-8.943.161-14.032 1.125-1.12.212-2.68.619-3.906.906l-.125.032c-.067.015-.155.048-.219.062-8.62 2.083-14.157 10.006-12.375 17.813 1.783 7.808 10.203 12.556 18.875 10.687.063-.014.154-.017.219-.031.098-.022.184-.07.281-.094 1.21-.265 2.724-.56 3.782-.843 5.003-1.34 8.626-3.308 13.125-5.032 9.676-3.47 17.691-6.37 25.5-7.5 3.26-.255 6.697 2.012 8.406 2.969l6.375-1.094c14.67 45.483 45.414 82.245 84.344 105.313l-2.657 6.375c.958 2.475 2.014 5.824 1.3 8.27-2.838 7.36-7.7 15.13-13.237 23.792-2.681 4.002-5.425 7.108-7.844 11.688-.579 1.096-1.316 2.78-1.875 3.937-3.759 8.043-1.002 17.305 6.219 20.782 7.266 3.497 16.284-.192 20.187-8.25.006-.012.026-.02.031-.032.004-.009-.004-.022 0-.03.556-1.143 1.344-2.645 1.813-3.72 2.072-4.747 2.762-8.815 4.219-13.406 3.87-9.72 5.995-19.919 11.322-26.274 1.459-1.74 3.837-2.41 6.303-3.07l3.312-6c33.938 13.027 71.927 16.523 109.875 7.907a189.77 189.77 0 0025.094-7.563c.93 1.651 2.661 4.826 3.125 5.625 2.506.815 5.24 1.236 7.469 4.531 3.985 6.81 6.71 14.865 10.031 24.594 1.457 4.591 2.178 8.66 4.25 13.406.472 1.082 1.256 2.605 1.812 3.75 3.895 8.085 12.943 11.787 20.22 8.282 7.219-3.478 9.979-12.74 6.218-20.782-.559-1.158-1.327-2.841-1.906-3.937-2.42-4.58-5.163-7.655-7.844-11.656-5.537-8.662-10.13-15.858-12.969-23.22-1.187-3.796.2-6.157 1.125-8.624-.554-.635-1.739-4.22-2.437-5.906 40.457-23.889 70.298-62.022 84.312-106.063 1.893.298 5.182.88 6.25 1.094 2.2-1.45 4.222-3.344 8.188-3.031 7.808 1.129 15.823 4.03 25.5 7.5 4.498 1.723 8.121 3.723 13.125 5.062 1.057.283 2.572.547 3.781.813.097.023.183.071.281.093.066.015.156.017.219.032 8.672 1.866 17.094-2.88 18.875-10.688 1.78-7.807-3.754-15.732-12.375-17.812-1.254-.286-3.032-.77-4.25-1-5.09-.964-9.231-.727-14.031-1.125-10.225-1.072-18.694-1.943-26.219-4.313-3.068-1.19-5.251-4.841-6.313-6.344l-5.906-1.718c3.062-22.155 2.237-45.212-3.062-68.282-5.349-23.284-14.8-44.58-27.407-63.343 1.515-1.378 4.377-3.911 5.188-4.657.237-2.624.033-5.375 2.75-8.281 5.751-5.4 13.003-9.879 21.75-15.281 4.152-2.443 7.99-4.017 12.156-7.094.942-.696 2.23-1.798 3.219-2.594 7.015-5.596 8.63-15.248 3.594-21.562-5.037-6.314-14.797-6.91-21.813-1.313-.998.791-2.353 1.823-3.25 2.594-3.926 3.378-6.351 6.714-9.656 10.219-7.213 7.326-13.174 13.438-19.719 17.844-2.836 1.65-6.99 1.08-8.875.968l-5.562 3.969c-31.72-33.26-74.905-54.525-121.406-58.656-.13-1.949-.3-5.471-.344-6.532-1.904-1.821-4.204-3.376-4.781-7.312-.637-7.864.426-16.325 1.656-26.531.679-4.769 1.807-8.73 2-13.907.044-1.176-.027-2.884-.031-4.156-.001-8.974-6.548-16.25-14.625-16.25zm-18.313 113.438l-4.344 76.718-.312.157c-.292 6.863-5.94 12.343-12.875 12.343-2.841 0-5.463-.912-7.594-2.468l-.125.062-62.906-44.594c19.333-19.01 44.063-33.06 72.562-39.53a154.125 154.125 0 0115.594-2.688zm36.656 0c33.274 4.092 64.045 19.159 87.625 42.25l-62.5 44.312-.218-.093c-5.548 4.051-13.364 3.046-17.688-2.375a12.807 12.807 0 01-2.812-7.47l-.063-.03zM232.126 283.62l57.438 51.375-.063.312c5.185 4.507 5.95 12.328 1.625 17.75a12.892 12.892 0 01-6.687 4.406l-.063.25-73.625 21.25c-3.747-34.265 4.329-67.573 21.375-95.343zm258.157.03c8.534 13.833 14.996 29.283 18.843 46.032 3.801 16.548 4.755 33.067 3.188 49.031l-74-21.312-.063-.313c-6.626-1.81-10.699-8.551-9.156-15.312a12.786 12.786 0 014.094-6.844l-.031-.156 57.125-51.125zm-140.657 55.313h23.532l14.625 18.282-5.25 22.812-21.125 10.156-21.188-10.187-5.25-22.813zm75.438 62.563c1-.05 1.995.04 2.969.219l.125-.157 76.156 12.875c-11.146 31.314-32.473 58.44-60.969 76.594l-29.562-71.406.093-.125c-2.715-6.31.002-13.71 6.25-16.719 1.6-.77 3.271-1.197 4.938-1.281zm-127.906.312c5.811.082 11.024 4.116 12.375 10.032.632 2.77.324 5.513-.72 7.937l.22.281-29.25 70.688c-27.348-17.549-49.13-43.824-60.782-76.063l75.5-12.812.125.156c.845-.155 1.701-.23 2.532-.219zm63.78 30.97a12.764 12.764 0 016.032 1.28c2.56 1.233 4.537 3.174 5.781 5.5h.282l37.218 67.25a154.256 154.256 0 01-14.875 4.157c-28.464 6.463-56.838 4.504-82.53-4.25l37.124-67.125h.063a12.91 12.91 0 0110.906-6.813z" style="text-indent:0;text-align:start;line-height:normal;text-transform:none;block-progression:tb;marker:none;-inkscape-font-specification:Sans" font-weight="400" color="#000000" fill="#ffffff" stroke="#ffffff" stroke-width=".25" overflow="visible" font-family="Sans" /></symbol><symbol id="icon-postgresql" viewBox="-4 0 264 264"><g>
        <path d="M255.007926,158.085617 C253.473109,153.437413 249.452194,150.199279 244.251788,149.42182 C241.799982,149.055852 238.991667,149.211935 235.668988,149.897164 C229.877358,151.092028 225.580342,151.546679 222.44449,151.635363 C234.280794,131.650217 243.905921,108.859714 249.446873,87.4065589 C258.406282,52.7182633 253.61855,36.9154365 248.023797,29.7669469 C233.217182,10.8477783 211.614448,0.683454965 185.55152,0.371879908 C171.649478,0.202198614 159.443658,2.94725173 153.077358,4.92075751 C147.149155,3.87547344 140.774577,3.29134411 134.08606,3.18315012 C121.550337,2.9833164 110.473164,5.71595381 101.008259,11.332582 C95.7670577,9.56127483 87.3580785,7.06335335 77.6460416,5.46882217 C54.8035104,1.71868822 36.3939769,4.64110855 22.9282587,14.153903 C6.62230023,25.6721293 -0.937090069,45.6838799 0.461154734,73.6339954 C0.904572748,82.5082679 5.86908083,109.507695 13.6850624,135.114199 C18.1771824,149.831538 22.9672794,162.053912 27.9223279,171.443732 C34.9490254,184.758688 42.4676212,192.600092 50.9085266,195.415501 C55.6400924,196.992296 64.2358984,198.09552 73.2774873,190.566873 C74.4232794,191.953885 75.9515935,193.33321 77.9812656,194.613801 C80.5578199,196.239076 83.7090439,197.566965 86.8555381,198.353885 C98.1969885,201.189395 108.820102,200.479926 117.882975,196.506309 C117.93855,198.117986 117.981709,199.658125 118.018365,200.987788 C118.07867,203.145164 118.137792,205.259972 118.217016,207.237617 C118.753848,220.612286 119.663741,231.011326 122.359723,238.286928 C122.507529,238.687778 122.706771,239.29733 122.917247,239.943538 C124.261691,244.062005 126.511298,250.955677 132.232573,256.355326 C138.158411,261.947714 145.325229,263.663446 151.888998,263.662855 C155.180933,263.662855 158.322106,263.231261 161.076619,262.640628 C170.897441,260.536462 182.050291,257.329663 190.118134,245.84218 C197.745515,234.981986 201.453672,218.625182 202.124711,192.851363 C202.211621,192.122975 202.292028,191.427104 202.369478,190.763751 C202.421506,190.316194 202.474716,189.858587 202.528517,189.402162 L204.325838,189.560018 L204.788767,189.591353 C214.791095,190.047187 227.021155,187.925875 234.532065,184.437062 C240.467363,181.68255 259.485857,171.642383 255.007926,158.085617" fill="#000000">

</path>
        <path d="M237.905589,160.722476 C208.165838,166.857016 206.121386,156.78788 206.121386,156.78788 C237.521885,110.194697 250.64824,51.0516028 239.320388,36.5766651 C208.417109,-2.90823095 154.921977,15.7655797 154.029229,16.2503834 L153.741894,16.3018199 C147.866309,15.0821247 141.290716,14.3555104 133.900416,14.2349007 C120.443566,14.0143741 110.236083,17.7627344 102.490457,23.636545 C102.490457,23.636545 7.06039723,-15.6768961 11.4987159,73.0806097 C12.4429007,91.9631224 38.5625866,215.954032 69.7171363,178.502947 C81.1041109,164.808425 92.1061986,153.229303 92.1061986,153.229303 C97.5708822,156.859418 104.112776,158.711132 110.970975,158.046005 L111.503667,157.593718 C111.338125,159.294079 111.413801,160.957192 111.717099,162.925968 C103.691233,171.893062 106.049626,173.467492 90.0055797,176.770069 C73.7711594,180.115806 83.308194,186.072388 89.5349654,187.629081 C97.0837136,189.516859 114.54788,192.190965 126.34812,175.672166 L125.877506,177.556988 C129.022226,180.075603 131.230448,193.940397 130.860342,206.508637 C130.490236,219.077469 130.243104,227.706383 132.720924,234.446337 C135.198744,241.186291 137.668286,256.351187 158.759612,251.831871 C176.383409,248.055132 185.516046,238.268009 186.786587,221.94254 C187.688203,210.336222 189.728517,212.051954 189.857404,201.675381 L191.493912,196.762901 C193.381099,181.029838 191.793663,175.95418 202.651492,178.314938 L205.290125,178.546697 C213.2817,178.9103 223.741044,177.261376 229.879723,174.408129 C243.098309,168.273589 250.93794,158.031224 237.904406,160.722476 L237.905589,160.722476" fill="#336791">

</path>
        <path d="M108.076342,81.5250624 C105.396915,81.152 102.969349,81.4972748 101.741376,82.426679 C101.050236,82.9499122 100.836804,83.5559169 100.779455,83.973321 C100.625145,85.0783187 101.399649,86.2997875 101.874993,86.9300323 C103.220619,88.7137552 105.18703,89.9399538 107.133339,90.2101432 C107.415353,90.249164 107.695594,90.2680831 107.974651,90.2680831 C111.220471,90.2680831 114.170679,87.7411917 114.430818,85.8758799 C114.755991,83.5399538 111.36473,81.9826697 108.076342,81.5250624" fill="#FFFFFF">

</path>
        <path d="M196.860453,81.5989654 L196.859861,81.5989654 C196.604453,79.7679446 193.345626,79.2458938 190.253524,79.6757136 C187.166152,80.1061247 184.171603,81.4996397 184.421691,83.3347991 C184.622707,84.7620139 187.19867,87.198448 190.249386,87.1978568 C190.506568,87.1978568 190.766707,87.1807113 191.028619,87.1440554 C193.064794,86.8620416 194.558818,85.5690346 195.268286,84.8235012 C196.349635,83.688351 196.974559,82.4219492 196.860453,81.5989654" fill="#FFFFFF">

</path>
        <path d="M247.802088,160.025423 C246.66812,156.596323 243.018494,155.492508 236.954309,156.745312 C218.949173,160.461155 212.501284,157.886965 210.38352,156.327908 C224.378975,135.007187 235.89188,109.236323 242.102688,85.1906513 C245.04521,73.8007206 246.670485,63.2231316 246.802919,54.601903 C246.949543,45.1375889 245.338457,38.1842032 242.014005,33.9362587 C228.611547,16.8108637 208.942115,7.62501617 185.131751,7.37256351 C168.763122,7.18869284 154.93321,11.3781062 152.252009,12.5558245 C146.60582,11.1516674 140.450587,10.2896628 133.750245,10.1796952 C121.461654,9.98104388 110.840314,12.9229746 102.045857,18.9191686 C98.2259584,17.4978661 88.3536998,14.10897 76.2814965,12.1644342 C55.4089238,8.80332564 38.8233164,11.3497275 26.9870115,19.7350577 C12.8638522,29.740933 6.34383372,47.626642 7.60727945,72.8943741 C8.03236952,81.3961755 12.8756767,107.547788 20.5202032,132.593219 C30.5822448,165.556915 41.5192979,184.218309 53.0280647,188.056536 C54.374873,188.505866 55.9286097,188.820397 57.6407945,188.820397 C61.8390762,188.820397 66.9856813,186.927889 72.3409885,180.490051 C81.2359538,169.788896 89.5408776,160.821801 92.6022356,157.563566 C97.1262818,159.992314 102.09552,161.347991 107.179455,161.483972 C107.188323,161.616998 107.201921,161.750023 107.213746,161.882457 C106.193885,163.092102 105.357303,164.152166 104.644286,165.05733 C101.122365,169.528166 100.389247,170.458753 89.0519353,172.793497 C85.8273995,173.458624 77.2611547,175.224018 77.1364065,181.227898 C76.9998337,187.787529 87.2605266,190.542633 88.4299677,190.834697 C92.5040924,191.854559 96.4286374,192.357691 100.171677,192.357691 C109.275344,192.357099 117.285838,189.365506 123.688203,183.576831 C123.490734,206.962697 124.466254,230.006836 127.273977,237.028212 C129.573247,242.775501 135.191649,256.822984 152.93842,256.821801 C155.54158,256.821801 158.408425,256.519095 161.561423,255.843326 C180.082106,251.872074 188.124527,243.686577 191.236139,225.640055 C192.901025,215.995418 195.758411,192.963695 197.101672,180.610069 C199.937774,181.49454 203.589173,181.899529 207.536185,181.898938 C215.768388,181.898938 225.266993,180.150097 231.224166,177.384942 C237.91564,174.277469 249.991982,166.650679 247.802088,160.025423 L247.802088,160.025423 Z M203.696185,76.5445912 C203.634697,80.1918522 203.132748,83.5027067 202.600647,86.9590023 C202.028342,90.6760277 201.435935,94.5189838 201.286947,99.1843326 C201.139732,103.724342 201.706716,108.444674 202.255372,113.008924 C203.363326,122.228471 204.500249,131.720573 200.098587,141.086744 C199.41454,139.871778 198.754143,138.546254 198.14873,137.078245 C197.601848,135.752129 196.414079,133.621949 194.769885,130.673515 C188.370476,119.197857 173.385312,92.3243603 181.056443,81.3583372 C183.340933,78.0935982 189.139658,74.7384018 203.696185,76.5445912 L203.696185,76.5445912 Z M186.052286,14.7581339 C207.386014,15.2293395 224.261321,23.2102725 236.209958,38.4780416 C245.373931,50.1890069 235.282919,103.476028 206.069949,149.446651 C205.781432,149.080092 205.487594,148.709986 205.183704,148.33042 C205.062503,148.178476 204.938938,148.024166 204.814189,147.868083 C212.362938,135.400942 210.886651,123.066236 209.572952,112.129774 C209.033164,107.641792 208.523529,103.402716 208.653007,99.4214134 C208.787215,95.2000739 209.34533,91.5811917 209.884527,88.0811455 C210.548471,83.7675751 211.223058,79.3050162 211.036822,74.0437136 C211.17576,73.4921016 211.231926,72.8399815 211.159206,72.0660693 C210.683861,67.0205635 204.924157,51.9224758 193.18363,38.2551501 C186.762346,30.7808961 177.396767,22.4156674 164.609774,16.7736166 C170.109931,15.6337367 177.631483,14.5707159 186.052286,14.7581339 L186.052286,14.7581339 Z M66.6741062,175.777995 C60.7742818,182.871501 56.6995658,181.512277 55.3598522,181.065903 C46.6292471,178.153533 36.499806,159.702023 27.568776,130.441755 C19.8408868,105.123769 15.3245266,79.6650716 14.9674273,72.5260416 C13.8387806,49.9483788 19.3117413,34.2129515 31.2349561,25.7572656 C50.6389284,11.9965266 82.5413764,20.2328684 95.3602956,24.4104573 C95.1758337,24.591963 94.9842771,24.7622356 94.8015889,24.9466975 C73.7664296,46.1911501 74.2654226,82.4875751 74.3168591,84.7058476 C74.3150855,85.56194 74.3866236,86.7739492 74.485358,88.4412009 C74.8471871,94.5455889 75.5205912,105.907732 73.7214965,118.775132 C72.0489238,130.732046 75.7346143,142.435326 83.8320185,150.883917 C84.6703741,151.758337 85.5453857,152.579547 86.4493672,153.352277 C82.8446744,157.212379 75.0115473,165.74788 66.6741062,175.777995 L66.6741062,175.777995 Z M89.1530346,145.78461 C82.6265127,138.975483 79.6627067,129.503483 81.020157,119.795584 C82.920351,106.202753 82.2185681,94.3646744 81.8419584,88.0048776 C81.7893395,87.1150855 81.7426328,86.335261 81.7148453,85.7197968 C84.7880277,82.9954365 99.0288406,75.3645081 109.184296,77.6915658 C113.819492,78.7534042 116.642587,81.9087667 117.816758,87.3373857 C123.893358,115.440037 118.621413,127.153367 114.385293,136.565654 C113.512055,138.504868 112.687298,140.337663 111.982559,142.234309 L111.436859,143.699954 C110.054577,147.406337 108.768665,150.851991 107.971695,154.124416 C101.034273,154.103132 94.2848591,151.139917 89.1530346,145.78461 L89.1530346,145.78461 Z M90.2178291,183.685025 C88.1922956,183.178938 86.3701432,182.299788 85.3012102,181.570808 C86.1939584,181.150448 87.7831686,180.579326 90.5388637,180.011751 C103.876286,177.265515 105.93552,175.328074 110.433552,169.61685 C111.465238,168.30788 112.634088,166.823316 114.252859,165.015353 C114.25345,165.014171 114.254042,165.01358 114.254633,165.012988 C116.666236,162.31346 117.768868,162.771067 119.768979,163.600554 C121.390115,164.271594 122.968684,166.303039 123.608979,168.539048 C123.911686,169.594975 124.252231,171.599815 123.138956,173.158873 C113.742633,186.31479 100.051067,186.1457 90.2178291,183.685025 L90.2178291,183.685025 Z M160.016554,248.637487 C143.700545,252.133395 137.923695,243.80837 134.116804,234.291436 C131.659677,228.146845 130.452397,200.440314 131.309081,169.84388 C131.320314,169.436527 131.262374,169.043363 131.150042,168.673848 C131.05249,167.96024 130.902319,167.238356 130.694208,166.511741 C129.419529,162.059824 126.315012,158.335704 122.5903,156.792018 C121.110467,156.178919 118.393792,155.05382 115.129644,155.888628 C115.826106,153.0206 117.033386,149.782467 118.341764,146.275326 L118.891012,144.79963 C119.509432,143.136517 120.284527,141.413691 121.105145,139.590356 C125.538143,129.741746 131.609423,116.25297 125.020231,85.7795104 C122.551871,74.3659307 114.310208,68.7924619 101.815871,70.0866513 C94.3250624,70.861746 87.472776,73.8840831 84.0549099,75.6169607 C83.3200185,75.9894319 82.6477968,76.3488961 82.0199169,76.6994919 C82.9735612,65.1990023 86.578254,43.707418 100.060527,30.1098568 C108.54873,21.548933 119.854115,17.3210901 133.628453,17.5487113 C160.768591,17.9933118 178.172453,31.9213672 187.994457,43.5276859 C196.457829,53.5294226 201.040998,63.6038799 202.870245,69.0372286 C189.115418,67.6389838 179.76048,70.3544758 175.017681,77.1340416 C164.700822,91.8815335 180.662097,120.506236 188.333229,134.262836 C189.739751,136.784406 190.954125,138.963067 191.336055,139.888924 C193.833977,145.943058 197.067972,149.984665 199.429321,152.935464 C200.152979,153.839446 200.855353,154.716231 201.389229,155.481866 C197.223464,156.683233 189.740342,159.457848 190.422023,173.328554 C189.872185,180.289035 185.960647,212.874938 183.974134,224.387843 C181.351464,239.597672 175.754346,245.263372 160.016554,248.637487 L160.016554,248.637487 Z M228.120831,170.700564 C223.861062,172.678208 216.732083,174.161589 209.959612,174.479667 C202.479446,174.830263 198.671963,173.641903 197.776259,172.91115 C197.355307,164.267455 200.573339,163.364065 203.978199,162.408055 C204.513256,162.257293 205.035307,162.111261 205.53903,161.935076 C205.852379,162.189894 206.195289,162.442938 206.570716,162.690661 C212.582873,166.658956 223.306494,167.087002 238.444785,163.962383 C238.50036,163.950559 238.555935,163.939917 238.610919,163.928684 C236.569423,165.837746 233.075289,168.400111 228.120831,170.700564 L228.120831,170.700564 Z" fill="#FFFFFF">

</path>
    </g>
</symbol><symbol id="icon-python" viewBox="0 0 32 32"><path fill-rule="evenodd" clip-rule="evenodd" d="M13.0164 2C10.8193 2 9.03825 3.72453 9.03825 5.85185V8.51852H15.9235V9.25926H5.97814C3.78107 9.25926 2 10.9838 2 13.1111L2 18.8889C2 21.0162 3.78107 22.7407 5.97814 22.7407H8.27322V19.4815C8.27322 17.3542 10.0543 15.6296 12.2514 15.6296H19.5956C21.4547 15.6296 22.9617 14.1704 22.9617 12.3704V5.85185C22.9617 3.72453 21.1807 2 18.9836 2H13.0164ZM12.0984 6.74074C12.8589 6.74074 13.4754 6.14378 13.4754 5.40741C13.4754 4.67103 12.8589 4.07407 12.0984 4.07407C11.3378 4.07407 10.7213 4.67103 10.7213 5.40741C10.7213 6.14378 11.3378 6.74074 12.0984 6.74074Z" fill="url(#paint0_linear_87_8204)" />
<path fill-rule="evenodd" clip-rule="evenodd" d="M18.9834 30C21.1805 30 22.9616 28.2755 22.9616 26.1482V23.4815L16.0763 23.4815L16.0763 22.7408L26.0217 22.7408C28.2188 22.7408 29.9998 21.0162 29.9998 18.8889V13.1111C29.9998 10.9838 28.2188 9.25928 26.0217 9.25928L23.7266 9.25928V12.5185C23.7266 14.6459 21.9455 16.3704 19.7485 16.3704L12.4042 16.3704C10.5451 16.3704 9.03809 17.8296 9.03809 19.6296L9.03809 26.1482C9.03809 28.2755 10.8192 30 13.0162 30H18.9834ZM19.9015 25.2593C19.1409 25.2593 18.5244 25.8562 18.5244 26.5926C18.5244 27.329 19.1409 27.9259 19.9015 27.9259C20.662 27.9259 21.2785 27.329 21.2785 26.5926C21.2785 25.8562 20.662 25.2593 19.9015 25.2593Z" fill="url(#paint1_linear_87_8204)" />
<defs>
<linearGradient id="paint0_linear_87_8204" x1="12.4809" y1="2" x2="12.4809" y2="22.7407" gradientUnits="userSpaceOnUse">
<stop stop-color="#327EBD" />
<stop offset="1" stop-color="#1565A7" />
</linearGradient>
<linearGradient id="paint1_linear_87_8204" x1="19.519" y1="9.25928" x2="19.519" y2="30" gradientUnits="userSpaceOnUse">
<stop stop-color="#FFDA4B" />
<stop offset="1" stop-color="#F9C600" />
</linearGradient>
</defs>
</symbol><symbol id="icon-flask" viewBox="0 0 128 128"><path fill="#010101" d="M44.44 100.63c-4.23-3.33-8.74-6.52-11.83-11.01-6.49-7.92-11.49-17.1-14.9-26.74-2.07-6.27-2.77-12.99-5.44-19.02-2.78-4.38.48-9.16 5.27-10.55 2.13-.41 5.89-2.43 1.36-.98-4.06 2.98-4.45-2.71-.29-3.07 2.84-.38 3.89-2.7 2.92-4.8-3.05-1.99 7.4-4.18 2.14-7.15-5.48-5.91 7.66-7.05 4.42-.33-.77 5.16 9.18-.95 6.87 5.01 2.35 2.86 8.8.65 8.63 4.67 3.42.24 4.6 3.11 7.8 3.33 3.33 1.5 9.36 2.69 10.49 6.44-3.3 2.61-10.95-5.4-11.31 1.84 1 10.69.74 21.7 4.65 31.88 1.85 6.16 6.33 11.01 10.38 15.81 3.88 4.7 9.12 8.01 14.48 10.8 4.69 2.21 9.75 3.68 14.87 4.6 2.07-1.59 5.74-7.48 8.97-5 .16 2.8-6.42 5.84-.31 5.54 3.59-1.08 6.08 2.77 9.04-.71 2.72 3.23 11.32-2.06 9.38 4.53-2.62 1.69-6.44.67-9.07 3-4.33-2.16-7.77 1.93-12.56 1.42-5.32.95-10.73 1.34-16.13 1.34-8.85-.7-17.89-.99-26.3-4.07-4.74-1.38-9.37-4.08-13.53-6.78zm7.47 3.24c4.63 2 9.16 4.11 14.23 4.75 8.05 1.12 16.37 2.84 24.45 1.27-3.66-1.65-7.44.64-11.08-1.18-4.37.94-9.06-.24-13.5-.82-5.05-2.25-10.5-3.8-15.23-6.72-5.91-2.16 3.06 2.77 4.65 3.17 3.69 2.1-4.06-1.08-5.16-1.95-3.09-1.74-3.49-1.37-.31.39.64.37 1.28.77 1.95 1.09zm-8.81-6.23c4.49 1.66-.02-3.16-2.07-2.88-.91-1.58-3.48-2.58-1.67-3.43-3.26 1.13-3.42-4.3-4.95-3.53-3.45-1.09-1.34-4.95-5.45-7.32-.37-2.5-4.08-4.66-5.26-8.43-.52-1.93-4.19-7.46-1.94-2.31 1.92 4.96 5.29 9.21 8.1 13.45 2.18 4.04 4.76 8.26 8.72 10.78 1.34 1.3 2.63 3.27 4.52 3.67zM30.17 83.45c.16-.68.82 1.46 0 0zm18.3 16.18c1-.44-1.43-.56 0 0zm2.44.89c-.25-1.23-1.11.69 0 0zm3.05 1.27c1.45-1.38-2.24-.87 0 0zm5.22 2.91c.89-1.3-2.82-.49 0 0zm-10.03-6.99c2.25-1.46-2.91-.02 0 0zm2.29 1.14c-.07-.77-.82.34 0 0zm11.43 7.13c1.84 1.16 10.73 2.54 5.16.48-.93.2-10.33-2.66-5.16-.48zM44.72 91.85c-.18-.77-2.85-.85 0 0zm5.32 3.1c1.39-.96-2.87-.74 0 0zm4.48 2.75c1.98-.75-3.23-.75 0 0zm-11.97-8.21c2.16 1.65 8.7.21 3.3-.99-2.45-1.31-7.99-2.2-4.22.79l.92.2zm15 9.16c.9-1.53-3.77-.88 0 0zm-4.56-3.63c5.27 1.49-4.43-3.34-1.3-.55l.7.32.6.23zm9.14 5.28c4.99.05-4.51-.68 0 0zm-21.5-13.7c-.19-.93-1.23.08 0 0zm29.94 18.44c.14-1.68-1.62 1.25 0 0zM49.15 91.82c-.3-.88-1.56-.04 0 0zm-8.04-5.8c2.86-.17-3.93-1.26 0 0zm-9.54-6.16c-.36-1.38-3.12-2.47 0 0zM56.6 95.74c-.52-.6-.25.13 0 0zm15.58 9.56c-.05-.91-.85.35 0 0zM55.22 94.32c.28-1.18-2.44-.36 0 0zm-11.6-7.36c2.13-.23-3.42-1.44 0 0zm19.63 12.2c3.32-1.32-3.24-.64 0 0zm-10.21-6.93c3.83.49-4.56-2.61-.84-.28l.84.28zm13.31 8.19c3.58-2.14 2.4 5.01 6.07.6 3.62-2.64-3.13 3.27 1.33.47 3.23-2.16 7.99 1.02 11 2.06 2.16-.11 4.27 1.87 6.49.67 4.27-1.15-8.36-1.71-5.05-3.75-3.91 1.14-6.8-1.36-8.72-3.86-4.39-1.01-9.46-3.25-11.65-7.14-.89-1.46 1.29.21-.77-2.18-2.64-2.35-3.96-5.02-5.73-7.88-2.12-1.13-2.37-4.46-2.58-.11.02-2.74-2.56-4.59-3.19-3.82-.01-2.64 2.76-1.32.82-3.27-.42-2.74-1.79-5.59-2.2-8.68-.64-1.49-.09-4.68-2.19-1.31-.76 3.57-.25-4.38.94-1.76 1.56-2.67-.56-2.36-.65-1.99 1.02-2.26.64-5.46-.27-4.24.54-2.39.86-8.8-.81-7.66 1.01-2.5 1.92-11.44-2.47-8.03-1.78.03-4.85.64-6.31 1.37 4.56 2.51-.46.91-2.32.51-.24 2.33-2.08 1.32-4.38 1.34 3.67.45-1.79 3.75-3.89 2.47-2.74 1.31 2.36 4.57.05 5.58.28 1.52-4.19-.55-3.84 2.96-2.65-1.12-.36 4.16.96 2.38 4.51 1.22 3.18 4.01 3.29 6.65-.74 1.54-3.63-3.62-.64-3.38-2.36-3.83-2.61-1.38-4.56.39-.45.13 4.99 2.53 1.57 3.72 3.01.47 3.1 3.1 3.71 4.76 1.81 1.88 1.44-2.08 3.6.18-1.37-2.02-7.25-5.68-2.52-4.51-.03-2.03-.86-3.67.6-3.63 1.44-2.6-1.51 6.42 1.73 3.11.9-.39 1.12-2.6 2.73.21 2.34 2.3.85 3.97-2.46 1.86.59 2.01 4.42 2.72 3.7 5.86.76 2.76 1.83 1.74 2.76 1.58.73 2.68 1.14.71 1.18-.57 3.34.72 2.56 2.69 3.6 4.07 2.3 1.04-3.29-7.04.66-2.43 4.16 3.75 1.56 5.32-2.17 4.72 2.36-.19 3.12 3.19 6.07 3.07 2.69 1.28 4.52 6.2-.12 4.15-1.61-1.45-7.31-3.24-2.65-.48 4.3 1.99 7.71 3.18 11.86 5.68 2.96 2.12 4.25 4.54 5.37 5.02-2.49 1.19-7.51-.95-3.78-1.61-2.33-.42-4.94-1.6-2.71 1.3 1.89 1.58 6.71 1.42 7.58 1.59-.73 1.61-1.99 1.74.03 1.86-2.25 1.22.72 1.41.93 2.1zm-4.6-13c-1.37-1.43-1.72-4.11-.24-1.78.75.3 2.43 4.38.24 1.78zm14.99 9.52c.85-.06.02.65 0 0zM59.59 83.91c-.06-2.17.49 1.67 0 0zM58.1 81.9c-1.73-3.32 2.17.95 0 0zM40.04 69.44c1.01-.27.5 1.73 0 0zm14.37 7.79c.62-2.33.73 1.96 0 0zm-10.15-7.06c-.71-1.29 1.5 1.21 0 0zm8.71 2.79c-1.63-3.65 1.16-2 .36.6l-.36-.6zM37.95 62.95c-.73-1.2-1.93-4.72-1.55-5.79.35 1.75 3.72 7.53 1.65 2.39-2.28-4.3 2.73 1.4 3.25 2.47.24 1.07-1.41-.29-.29 2.21-2.04-2.85-1.2 1.58-3.06-1.28zm-4.64-3.2c.19-2.79 1.06 1.91 0 0zm2.08.72c1-2.11 1.69 2.93 0 0zm-5.02-3.89c-1.73-1.72-2.98-3.3.08-1.07 1.18.05-2.62-3.6.28-1.16 3.06.56 1.51 5.01-.36 2.23zm2.64-.07c1-.99.53.98 0 0zm1.62.52c-1.52-2.85 1.85 1.2 0 0zm-3.22-3.08c-5.02-4.47 6.31 2.34.82.83l-.82-.83zm14.39 8.36c-2.18-1.3-.58-9.18.16-3.79 2.11-.68-.12 2.78 1.46 2.75-.24 2.18-.95 2.97-1.62 1.04zm5.33 3.15c.21-2.38.45 1.62 0 0zm-.93-.92c.24-1.01.03 1.2 0 0zM32.39 52.48c-3.23-4.45 9.38 4.51 2.07 1.13-.77-.21-1.69-.28-2.07-1.13zm10.26 5.43c-.31-3.75.68.62 0 0zm7.78 5c.6-2.14.05 1.41 0 0zM32.89 50.78c1.92-.41 7.95 3.37 2.41 1.08-.62-.69-1.93-.38-2.41-1.08zm16.47 8.21c.2-3.84 1.15-2.29.01.55l-.01-.55zm-15.05-9.55c.78-1.15-2.08-5.18.41-1.45 1.08.85 3.11 1.43 1.31 1.79 2.84 2.5-.68.68-1.72-.34zm14.24 8.35c.54-4.37.47 2.56 0 0zM32.68 45.41c.6-.26.32.79 0 0zm3.71 2.21c.96-2.01 1.77 2.23 0 0zm10.47 5.82c0-.77.2 1.12 0 0zm-.6-1.34c-1.45-3.59 1.35 1.9 0 0zm-.89-2.35c-.25-1.48.83 1.86 0 0zm1.45-2.36c-1-1.76 1.26-7.75 1.51-4.03-1.05 2.89-.3 4.51.43.63 1.36-3.06-.29 6.02-1.94 3.4zm1.49-8.91c.44-.53.1.65 0 0zM45.82 87.6c-.59-.52.07.33 0 0zm5.13 2.6c2.86.74 2.84-.44.26-.79-1.39-1.29-5.77-2.66-1.85-.16.27.65 1.09.63 1.59.95zm-10.14-6.74c1.57 1.18 5.93 3.32 2.24.45 1.24-1.44-2.38-2.21-1.18-3.18-3.06-1.87-2.41-1.7-.27-1.64-3.67-1.64.53-1.52.33-2.36-1.42-.28-7.03-2.5-3.73.18-3.36-1.71-.8.64-1.82.39-3.44-.94 3.06 2.62-.54 1.73 1.97 1.56 5.3 4 .83 1.65-.57.85 3.21 2.14 4.14 2.78zm5.37 3.09c6.53 2.1-3.2-2.58 0 0zm27.5 16.65c.08-1.3-.9 1.11 0 0zm2.82 1.19c1.51-1.46.06 2.33 2.5-.36.03-1.92-.07-3.06-2.8-.72-.75.42-1.09 2.19.3 1.08zM31.65 76.22c-.47-1.82-3.25-1.81 0 0zm3.01 1.98c-1.12-1.86-4-1.68 0 0zm17.17 10.35c1.68 1.49 7.7 1.09 2.03.18-.83-1.24-5.32-.94-2.03-.18zm23.6 14.57c2.57-2.16-2.5.97 0 0zm5.36 3.69c.02-.69-1.11.3 0 0zm.01-.97c2.86-3.03-2.77.18 0 0zM24.22 70.01c-2.43-3.47-1.51-5.03-3.86-7.87-.45-2.17-4.03-7.09-1.85-1.88 1.99 3.05 2.58 7.77 5.71 9.75zm55.68 34.87c5.26-3.4-2.15-1.48 0 0zm4.01 1.57c2.64-2.26-1.66-.47 0 0zM30.75 72.38c.76-1.12-1.94-.14 0 0zm52.33 32.99c2.55-1.64-.59-1.39-.46.15l.46-.15zM48.5 83.58c-.09-1.11-1.35.09 0 0zm2.14 1.23c-.69-1.38-1.05.21 0 0zm36.53 21.67c3.27-2.36-1.98-.45-.68.45l.68-.45zm-1.26-.6c2.67-2.23-2.8.99 0 0zm6.39 4.25c1.79-1.19-2.17-.38 0 0zM32.39 71.57c2.39.54 9.56 5.89 5.33.37-2.17-.64-.87-5.94-3.08-5 1.48 2.48 1.22 3.53-1.9 1.97-3.91-1.91-2.2.94-1.43 1.73-1.04.25 1.39.91 1.08.93zm-10.9-8.61c.43-1.77-3.95-9.75-2.07-4 .68 1.21.61 3.49 2.07 4zM41.5 75.3c-1.23-1.03-.06-.15 0 0zm3.03.71c0-1.88-3.35-.77 0 0zm26.3 16.57c-.5-1.28-1.98-.02 0 0zm1.26.93c-.18-.72-.72.14 0 0zm10.43 6.56c1-.74-1.25-.09 0 0zM26.93 64.35c2.87-1.11-3.07-.79 0 0zm41.59 26.2c-.04-1.86-1.83.46 0 0zM25.8 61.71c1.84-.62-1.71-.41 0 0zm5.34 2.59c-.03-.61-.56.23 0 0zm65.22 39.99c2.37-.48 7.77 1.21 8.64-.63-2.88-.07-9.95-2.03-10.28.46l.63.1 1.01.07zM32.84 64.73c.05-1.88-1.46-.07 0 0zm-14.05-9.75c-.64-3.58-2.43-.54 0 0zm3.35.84c.04-1.15-3.07-1.03 0 0zm1.91.94c-.55-.44-.43.57 0 0zm12.06 7.73c.57-.52-1.35-.38 0 0zm-13.33-9.85c-.33-2.71-3.88-.4 0 0zm-6.87-4.46c-.1-1.25-.67.47 0 0zm1.02-.77c-.17-1.48-.88.19 0 0zm5.65 3.37c2.39-.94-4.35-1.94-.49-.18l.49.18zm75.59 46.69c1.53-1.4-1.94-.43 0 0zm9.13 4.74c.61-1.81-1.54.23 0 0zM23.15 49.82c.26-1.75-1.89.35 0 0zm-8.03-5.38c-.43-2.47-.37-6.82 3.76-5.35-5.51 1.1 3.82 6.85 2.64 2.31 2.32.11 4.53-1.37 3.32.88 4.57-.5 7.73-4.46 12.14-3.91 3.44-.46 7.19-.8 10.89-2.18 3.04-.22 5.97-3.5 4.31-5.44-4.15-.35-8.5.17-13.08 1.08-5.08 1.06-9.7 3.06-14.83 3.93-5 .67 1 1.85-.43 2.11-2.61.9 3.11 1.52-.34 2.47-2.13-.41-4.35-1.14-3.44-3.38-4.79.62-9 2.61-5.21 7.48h.27zm11.54-5.88c1.12-4.14 6.01 3.4 1.84.55-.5-.38-1.32-.68-1.84-.55zm.22-2.01c1.62-1.2.86.68 0 0zm2.06.04c.15-1.9 4.71 1.01.75.68l-.75-.68zm2.81-1.14c1.03-1.2.3 1.07 0 0zm.72-.48c1.71-2.06 9.69-1.31 3.85-.2-1.56-1.18-2.76.7-3.85.2zm10.42-1.6c-.26-5.62 5.18 1.99 0 0zm2.96-.02c1.08-2.83 4.2-1.14.5-.57.08.3-.11 1.46-.5.57zM21.99 48.37c3.23-1.98-3.43-1.72 0 0zm2.39.66c1.13-1.2-2.46-.49 0 0zm-7.04-4.99c1.85-1.42-2.18-.54 0 0zm95.35 59.65c.05-1.65-1.41.74 0 0zM103 97.08c.28-1.9-1.24.16 0 0zm12.36 7.25c2.58.01 7.82-.8 2.2-.8-.88.13-5.13.11-2.2.8zM26.48 47.87c2.09-.14 3.27-2.3-.41-2.18-5.69-.59 5.02 1.95-.73 1.22-.77.51 1.09 1.1 1.14.96zm1.84.93c-.22-1.34-.65.71 0 0zm2.18-5.82c.9-1.12-1.26-.3 0 0zm-6.95-11.6c3.73-1.27 8.82-2.69 10.58.62-1.79-2.15-.72-4.28.97-1.12 2.39 3.19 3.59-1.45 2.03-2.52 1.77 2.2 3.79 3.24 1.19.14 2.83-3.4-5.66.45-7.59.41-.92.41-9.58 2.2-7.18 2.47zm2.19-4.18c2.13-1.6 7.35.96 4-1.59-.33-.3-7.35 1.93-4 1.59zm7.75.32c2.49.06-1.07-3.34 1.89-1.8-.49-1.59-3.45-1.89-4.9-2.52-.82 1.45 1.66 4.34 3.01 4.32zm-6.39-7.04c.86-1.16-1.51.6 0 0zm3.16.76c4.01-.53-1.02-1.72-.81-.04l.81.04zm-5.91-4.62c-2.82-3.69 5.31.62 2.44-3.24-2.41-1.92-4.73 2.16-2.44 3.24zm36.21 19.5c1.29-2.29-5.34-3.09-.87-.81.42.14.32.97.87.81z" /></symbol><symbol id="icon-angular" viewBox="0 0 128 128"><g id="surface1">
    <path style=" stroke:none;fill-rule:nonzero;fill:rgb(86.666667%,0%,19.215686%);fill-opacity:1;" d="M 64 15.359375 L 16.332031 32.359375 L 23.601562 95.386719 L 64 117.761719 L 104.398438 95.386719 L 111.667969 32.359375 Z M 64 15.359375 " />
    <path style=" stroke:none;fill-rule:nonzero;fill:rgb(76.470588%,0%,18.431373%);fill-opacity:1;" d="M 64 15.359375 L 64 26.726562 L 64 26.675781 L 64 117.761719 L 104.398438 95.386719 L 111.667969 32.359375 Z M 64 15.359375 " />
    <path style=" stroke:none;fill-rule:nonzero;fill:rgb(100%,100%,100%);fill-opacity:1;" d="M 64 26.675781 L 34.203125 93.492188 L 45.3125 93.492188 L 51.300781 78.539062 L 76.59375 78.539062 L 82.585938 93.492188 L 93.695312 93.492188 Z M 72.703125 69.324219 L 55.296875 69.324219 L 64 48.382812 Z M 72.703125 69.324219 " />
  </g>
</symbol><symbol id="icon-ruby" viewBox="0 -0.5 256 256"><defs>
        <linearGradient x1="84.7503645%" y1="111.399353%" x2="58.2543962%" y2="64.5837087%" id="linearGradient-1">
            <stop stop-color="#FB7655" offset="0%">

</stop>
            <stop stop-color="#FB7655" offset="0%">

</stop>
            <stop stop-color="#E42B1E" offset="41%">

</stop>
            <stop stop-color="#990000" offset="99%">

</stop>
            <stop stop-color="#990000" offset="100%">

</stop>
        </linearGradient>
        <linearGradient x1="116.651024%" y1="60.8903211%" x2="1.74616041%" y2="19.2879503%" id="linearGradient-2">
            <stop stop-color="#871101" offset="0%">

</stop>
            <stop stop-color="#871101" offset="0%">

</stop>
            <stop stop-color="#911209" offset="99%">

</stop>
            <stop stop-color="#911209" offset="100%">

</stop>
        </linearGradient>
        <linearGradient x1="75.7744024%" y1="219.327131%" x2="38.9781357%" y2="7.82868176%" id="linearGradient-3">
            <stop stop-color="#871101" offset="0%">

</stop>
            <stop stop-color="#871101" offset="0%">

</stop>
            <stop stop-color="#911209" offset="99%">

</stop>
            <stop stop-color="#911209" offset="100%">

</stop>
        </linearGradient>
        <linearGradient x1="50.012428%" y1="7.23449921%" x2="66.4830414%" y2="79.1354134%" id="linearGradient-4">
            <stop stop-color="#FFFFFF" offset="0%">

</stop>
            <stop stop-color="#FFFFFF" offset="0%">

</stop>
            <stop stop-color="#E57252" offset="23%">

</stop>
            <stop stop-color="#DE3B20" offset="46%">

</stop>
            <stop stop-color="#A60003" offset="99%">

</stop>
            <stop stop-color="#A60003" offset="100%">

</stop>
        </linearGradient>
        <linearGradient x1="46.1741749%" y1="16.347907%" x2="49.9323342%" y2="83.0468449%" id="linearGradient-5">
            <stop stop-color="#FFFFFF" offset="0%">

</stop>
            <stop stop-color="#FFFFFF" offset="0%">

</stop>
            <stop stop-color="#E4714E" offset="23%">

</stop>
            <stop stop-color="#BE1A0D" offset="56%">

</stop>
            <stop stop-color="#A80D00" offset="99%">

</stop>
            <stop stop-color="#A80D00" offset="100%">

</stop>
        </linearGradient>
        <linearGradient x1="36.9653573%" y1="15.5936471%" x2="49.5282324%" y2="92.4776332%" id="linearGradient-6">
            <stop stop-color="#FFFFFF" offset="0%">

</stop>
            <stop stop-color="#FFFFFF" offset="0%">

</stop>
            <stop stop-color="#E46342" offset="18%">

</stop>
            <stop stop-color="#C82410" offset="40%">

</stop>
            <stop stop-color="#A80D00" offset="99%">

</stop>
            <stop stop-color="#A80D00" offset="100%">

</stop>
        </linearGradient>
        <linearGradient x1="13.6086166%" y1="58.3456855%" x2="85.7636612%" y2="-46.7167814%" id="linearGradient-7">
            <stop stop-color="#FFFFFF" offset="0%">

</stop>
            <stop stop-color="#FFFFFF" offset="0%">

</stop>
            <stop stop-color="#C81F11" offset="54%">

</stop>
            <stop stop-color="#BF0905" offset="99%">

</stop>
            <stop stop-color="#BF0905" offset="100%">

</stop>
        </linearGradient>
        <linearGradient x1="27.6242038%" y1="21.1345847%" x2="50.7445145%" y2="79.0557818%" id="linearGradient-8">
            <stop stop-color="#FFFFFF" offset="0%">

</stop>
            <stop stop-color="#FFFFFF" offset="0%">

</stop>
            <stop stop-color="#DE4024" offset="31%">

</stop>
            <stop stop-color="#BF190B" offset="99%">

</stop>
            <stop stop-color="#BF190B" offset="100%">

</stop>
        </linearGradient>
        <linearGradient x1="-20.6671297%" y1="122.281897%" x2="104.241521%" y2="-6.34211007%" id="linearGradient-9">
            <stop stop-color="#BD0012" offset="0%">

</stop>
            <stop stop-color="#BD0012" offset="0%">

</stop>
            <stop stop-color="#FFFFFF" offset="7%">

</stop>
            <stop stop-color="#FFFFFF" offset="17%">

</stop>
            <stop stop-color="#C82F1C" offset="27%">

</stop>
            <stop stop-color="#820C01" offset="33%">

</stop>
            <stop stop-color="#A31601" offset="46%">

</stop>
            <stop stop-color="#B31301" offset="72%">

</stop>
            <stop stop-color="#E82609" offset="99%">

</stop>
            <stop stop-color="#E82609" offset="100%">

</stop>
        </linearGradient>
        <linearGradient x1="58.7919609%" y1="65.2049657%" x2="11.9636556%" y2="50.1275621%" id="linearGradient-10">
            <stop stop-color="#8C0C01" offset="0%">

</stop>
            <stop stop-color="#8C0C01" offset="0%">

</stop>
            <stop stop-color="#990C00" offset="54%">

</stop>
            <stop stop-color="#A80D0E" offset="99%">

</stop>
            <stop stop-color="#A80D0E" offset="100%">

</stop>
        </linearGradient>
        <linearGradient x1="79.3194899%" y1="62.7538068%" x2="23.088288%" y2="17.8876818%" id="linearGradient-11">
            <stop stop-color="#7E110B" offset="0%">

</stop>
            <stop stop-color="#7E110B" offset="0%">

</stop>
            <stop stop-color="#9E0C00" offset="99%">

</stop>
            <stop stop-color="#9E0C00" offset="100%">

</stop>
        </linearGradient>
        <linearGradient x1="92.8800277%" y1="74.1223655%" x2="59.8414537%" y2="39.7039965%" id="linearGradient-12">
            <stop stop-color="#79130D" offset="0%">

</stop>
            <stop stop-color="#79130D" offset="0%">

</stop>
            <stop stop-color="#9E120B" offset="99%">

</stop>
            <stop stop-color="#9E120B" offset="100%">

</stop>
        </linearGradient>
        <radialGradient cx="32.0008013%" cy="40.2100469%" fx="32.0008013%" fy="40.2100469%" r="69.5729556%" id="radialGradient-13">
            <stop stop-color="#A80D00" offset="0%">

</stop>
            <stop stop-color="#A80D00" offset="0%">

</stop>
            <stop stop-color="#7E0E08" offset="99%">

</stop>
            <stop stop-color="#7E0E08" offset="100%">

</stop>
        </radialGradient>
        <radialGradient cx="13.5493795%" cy="40.859922%" fx="13.5493795%" fy="40.859922%" r="88.3861936%" id="radialGradient-14">
            <stop stop-color="#A30C00" offset="0%">

</stop>
            <stop stop-color="#A30C00" offset="0%">

</stop>
            <stop stop-color="#800E08" offset="99%">

</stop>
            <stop stop-color="#800E08" offset="100%">

</stop>
        </radialGradient>
        <linearGradient x1="56.5701955%" y1="101.716594%" x2="3.10480737%" y2="11.9932603%" id="linearGradient-15">
            <stop stop-color="#8B2114" offset="0%">

</stop>
            <stop stop-color="#8B2114" offset="0%">

</stop>
            <stop stop-color="#9E100A" offset="43%">

</stop>
            <stop stop-color="#B3100C" offset="99%">

</stop>
            <stop stop-color="#B3100C" offset="100%">

</stop>
        </linearGradient>
        <linearGradient x1="30.8698732%" y1="35.5989756%" x2="92.4707626%" y2="100.693616%" id="linearGradient-16">
            <stop stop-color="#B31000" offset="0%">

</stop>
            <stop stop-color="#B31000" offset="0%">

</stop>
            <stop stop-color="#910F08" offset="44%">

</stop>
            <stop stop-color="#791C12" offset="99%">

</stop>
            <stop stop-color="#791C12" offset="100%">

</stop>
        </linearGradient>
    </defs>
    <g>
        <path d="M197.467337,167.763618 L51.9461307,254.173266 L240.368563,241.387417 L254.880804,51.3929648 L197.467337,167.763618 Z" fill="url(#linearGradient-1)">

</path>
        <path d="M240.677307,241.257487 L224.482412,129.479397 L180.369367,187.729045 L240.677307,241.257487 Z" fill="url(#linearGradient-2)">

</path>
        <path d="M240.896,241.257487 L122.249648,231.943719 L52.5764824,253.930131 L240.896,241.257487 Z" fill="url(#linearGradient-3)">

</path>
        <path d="M52.7437186,253.954573 L82.3831156,156.854673 L17.161005,170.800884 L52.7437186,253.954573 Z" fill="url(#linearGradient-4)">

</path>
        <path d="M180.357789,188.050653 L153.085427,81.2253266 L75.0375879,154.384724 L180.357789,188.050653 Z" fill="url(#linearGradient-5)">

</path>
        <path d="M248.693065,82.7304523 L174.916181,22.4739698 L154.371859,88.8924623 L248.693065,82.7304523 Z" fill="url(#linearGradient-6)">

</path>
        <path d="M214.190955,0.990552764 L170.799598,24.9696482 L143.424322,0.668944724 L214.190955,0.990552764 Z" fill="url(#linearGradient-7)">

</path>
        <path d="M0,203.37206 L18.1772864,170.220704 L3.47336683,130.727236 L0,203.37206 Z" fill="url(#linearGradient-8)">

</path>
        <path d="M2.49567839,129.479397 L17.2896482,171.442814 L81.5726633,157.020623 L154.963618,88.8139899 L175.675176,23.0271357 L143.062834,0 L87.617608,20.7501508 C70.1491457,36.9977889 36.2516583,69.1457286 35.0295477,69.7503518 C33.8203015,70.3678392 12.6456281,110.388744 2.49567839,129.479397 L2.49567839,129.479397 Z" fill="#FFFFFF">

</path>
        <path d="M54.441809,54.0944724 C92.3015075,16.5563819 141.108744,-5.62170854 159.839196,13.2759799 C178.55807,32.1736683 158.707136,78.0992965 120.847437,115.624523 C82.9877387,153.149749 34.7851256,176.54995 16.0675377,157.652261 C-2.66291457,138.767437 16.5821106,91.6196985 54.441809,54.0944724 L54.441809,54.0944724 Z" fill="url(#linearGradient-9)">

</path>
        <path d="M52.7437186,253.91598 L82.1515578,156.507337 L179.817487,187.883417 C144.504925,220.996181 105.230151,248.988945 52.7437186,253.91598 L52.7437186,253.91598 Z" fill="url(#linearGradient-10)">

</path>
        <path d="M155.092261,88.6223116 L180.164824,187.934874 C209.662714,156.918995 236.137487,123.574673 249.103437,82.3316583 L155.092261,88.6223116 L155.092261,88.6223116 Z" fill="url(#linearGradient-11)">

</path>
        <path d="M248.847437,82.8333668 C258.881608,52.5507538 261.197186,9.1079397 213.880925,1.04201005 L175.056402,22.4868342 L248.847437,82.8333668 L248.847437,82.8333668 Z" fill="url(#linearGradient-12)">

</path>
        <path d="M0,202.934673 C1.38934673,252.913849 37.4480402,253.658693 52.8080402,254.097367 L17.3282412,171.236985 L0,202.934673 L0,202.934673 Z" fill="#9E1209">

</path>
        <path d="M155.232482,88.7766834 C177.899417,102.708744 223.58191,130.688643 224.508141,131.203216 C225.947658,132.013668 244.203417,100.418894 248.345729,82.5632161 L155.232482,88.7766834 L155.232482,88.7766834 Z" fill="url(#radialGradient-13)">

</path>
        <path d="M82.1129648,156.507337 L121.426332,232.355377 C144.672161,219.748342 162.875176,204.388342 179.547337,187.934874 L82.1129648,156.507337 L82.1129648,156.507337 Z" fill="url(#radialGradient-14)">

</path>
        <path d="M17.1738693,171.339899 L11.6036181,237.668342 C22.1137688,252.024925 36.5732663,253.272764 51.7403015,252.153568 C40.7670352,224.842613 18.8462312,170.233568 17.1738693,171.339899 L17.1738693,171.339899 Z" fill="url(#linearGradient-15)">

</path>
        <path d="M174.826131,22.6540704 L252.925427,33.6144724 C248.757387,15.9517588 235.957387,4.55396985 214.139497,0.990552764 L174.826131,22.6540704 L174.826131,22.6540704 Z" fill="url(#linearGradient-16)">

</path>
    </g>
</symbol><symbol id="icon-rails" viewBox="0 -6 32 32"><g fill="none" fill-rule="evenodd">

<path d="M0-6h32v32H0z" />

<path fill="#c00" fill-rule="nonzero" d="M.985 19.636s.422-4.163 3.375-9.087c2.954-4.924 7.99-8.65 12.083-9.017 8.144-.816 15.46 6.485 15.46 6.485s-.24.168-.494.38C23.42 2.49 18.54 5.274 17.005 6.02c-7.033 3.925-4.91 13.616-4.91 13.616H.987zM24.137 2.32c-.45-.182-.9-.35-1.364-.505l.056-.93c.885.254 1.237.423 1.363.493l-.056.943zM22.8 5.304c.45.028.915.084 1.393.183l-.056.872c-.464-.1-.928-.155-1.392-.17l.056-.885zM17.597.913c-.407 0-.815.015-1.223.058l-.268-.83c.465-.056.915-.084 1.35-.084l.282.858h-.14zm.676 5.178c.35-.154.76-.31 1.237-.45l.31.93c-.41.125-.817.294-1.225.49l-.323-.97zm-6.386-3.7c-.366.184-.718.395-1.083.62l-.647-.985c.38-.225.745-.42 1.097-.604l.633.97zm2.883 6.33c.252-.323.548-.646.87-.942l.634.957c-.31.323-.59.647-.83 1L14.77 8.72zm-2.04 4.53c.112-.506.24-1.027.422-1.547l1.012.802c-.14.548-.24 1.097-.295 1.645l-1.14-.9zM6.57 6.57c-.34.35-.662.73-.958 1.11L4.53 6.752c.323-.352.674-.704 1.04-1.055l1 .872zm-4.25 6.286c-.224.52-.52 1.21-.702 1.688L0 13.954c.14-.38.436-1.084.703-1.69l1.618.592zm10.2 3.967l1.518.548c.084.663.21 1.28.337 1.83l-1.688-.605c-.07-.422-.14-1.027-.168-1.772z" />

</g>

</symbol><symbol id="icon-javascript" viewBox="0 0 256 289"><path d="M128 288.464c-3.975 0-7.685-1.06-11.13-2.915l-35.247-20.936c-5.3-2.915-2.65-3.975-1.06-4.505 7.155-2.385 8.48-2.915 15.9-7.156.796-.53 1.856-.265 2.65.265l27.032 16.166c1.06.53 2.385.53 3.18 0l105.739-61.217c1.06-.53 1.59-1.59 1.59-2.915V83.081c0-1.325-.53-2.385-1.59-2.915L129.325 19.213c-1.06-.53-2.385-.53-3.18 0L20.405 80.166c-1.06.53-1.59 1.855-1.59 2.915v122.17c0 1.06.53 2.385 1.59 2.915l28.887 16.695c15.635 7.951 25.44-1.325 25.44-10.6V93.681c0-1.59 1.326-3.18 3.181-3.18h13.516c1.59 0 3.18 1.325 3.18 3.18v120.58c0 20.936-11.396 33.126-31.271 33.126-6.096 0-10.866 0-24.382-6.625L11.13 224.861C4.24 220.886 0 213.466 0 205.516V83.346C0 75.396 4.24 67.976 11.13 64L116.87 2.783c6.625-3.71 15.635-3.71 22.26 0L244.87 64C251.76 67.975 256 75.395 256 83.346v122.17c0 7.95-4.24 15.37-11.13 19.345l-105.74 61.218c-3.445 1.59-7.42 2.385-11.13 2.385Zm32.596-84.009c-46.377 0-55.917-21.2-55.917-39.221 0-1.59 1.325-3.18 3.18-3.18h13.781c1.59 0 2.915 1.06 2.915 2.65 2.12 14.045 8.215 20.936 36.306 20.936 22.261 0 31.802-5.035 31.802-16.961 0-6.89-2.651-11.925-37.367-15.371-28.886-2.915-46.907-9.275-46.907-32.331 0-21.466 18.021-34.186 48.232-34.186 33.921 0 50.617 11.66 52.737 37.101 0 .795-.265 1.59-.795 2.385-.53.53-1.325 1.06-2.12 1.06h-13.78c-1.326 0-2.651-1.06-2.916-2.385-3.18-14.575-11.395-19.345-33.126-19.345-24.381 0-27.296 8.48-27.296 14.84 0 7.686 3.445 10.071 36.306 14.311 32.597 4.24 47.967 10.335 47.967 33.126-.265 23.321-19.345 36.571-53.002 36.571Z" fill="#539E43" /></symbol></svg>