<svg width="2500" height="2500" fill="none" xmlns="http://www.w3.org/2000/svg"><path d="M0 0h2500v2500H0V0Z" fill="#017ACB"/><path d="M1200.39 925.781h119.92v207.029H996.094v921.1l-8.594 2.34c-11.719 3.13-166.016 3.12-199.219-.39l-26.562-2.34v-920.71H437.5V925.781l102.734-1.172c56.25-.781 200.782-.781 321.094 0 120.313.782 272.652 1.172 339.062 1.172Zm915.23 1030.469c-47.65 50.39-98.82 78.52-183.98 101.56-37.11 10.16-43.36 10.55-126.95 10.16-83.6-.39-90.24-.39-130.86-10.94-105.08-26.95-189.85-79.69-247.66-154.3-16.4-21.09-43.36-64.84-43.36-70.31 0-1.56 3.91-5.08 8.99-7.42 5.07-2.34 15.62-8.98 24.22-14.06 8.59-5.08 24.21-14.46 34.76-19.92 10.55-5.47 41.02-23.44 67.58-39.46 26.56-16.01 50.78-28.9 53.51-28.9 2.74 0 7.82 5.46 11.72 12.11 23.44 39.45 78.13 89.84 116.8 107.03 23.83 10.15 76.56 21.48 101.95 21.48 23.44 0 66.41-10.15 89.46-20.7 24.61-11.33 37.11-22.66 51.95-45.31 10.16-16.02 11.33-20.32 10.94-50.79 0-28.12-1.57-35.93-9.38-48.82-21.87-35.94-51.56-54.69-171.87-107.82-124.22-55.07-180.08-87.89-225.39-132.03-33.6-32.81-40.24-41.79-61.33-82.81-27.35-52.73-30.86-69.92-31.25-148.44-.39-55.08.78-73.04 6.64-91.79 8.2-28.13 34.76-82.43 46.87-96.1 25-29.3 33.99-38.28 51.57-52.733 53.12-43.75 135.93-72.656 215.23-75.39 8.99 0 38.67 1.562 66.41 3.515 79.68 6.641 133.98 26.172 186.33 67.969 39.45 31.249 99.21 104.689 93.35 114.449-3.9 5.86-159.76 109.77-169.92 112.9-6.25 1.95-10.54-.4-19.14-10.55-53.12-63.67-74.61-77.35-126.17-80.47-36.72-2.34-56.25 1.95-80.86 18.36-25.78 17.19-38.28 43.36-38.28 79.69.39 53.12 20.7 78.12 95.7 115.23 48.44 23.83 89.85 43.36 92.97 43.36 4.69 0 105.08 50 131.25 65.62 121.88 71.49 171.49 144.93 184.38 271.49 9.37 95.31-17.58 182.42-76.18 244.14Z" fill="#fff"/></svg>